<svg width="91" height="91" viewBox="0 0 91 91" fill="none" xmlns="http://www.w3.org/2000/svg">
<path d="M88.3641 59.7073L90.3924 61.8958L90.4617 61.97L90.3875 62.0374C89.6013 62.7581 88.7606 63.4184 87.8748 64.0139L87.8758 64.0149C85.4164 65.7054 82.6089 66.8286 79.658 67.303C76.7229 67.7748 73.7196 67.5923 70.8641 66.7698L64.7938 71.0598L64.7127 71.1174L64.6551 71.0364L62.9227 68.6086L62.8641 68.5266L62.9461 68.468L69.6785 63.718L69.8416 63.6174C70.0099 63.5264 70.1939 63.466 70.3846 63.4397C70.6384 63.4047 70.897 63.4304 71.1385 63.5159H71.1375C73.6244 64.3466 76.2722 64.5861 78.869 64.2161C81.4658 63.846 83.94 62.8768 86.0926 61.385L86.1492 61.467L86.0936 61.384C86.845 60.8779 87.5575 60.3158 88.2234 59.7024L88.2967 59.635L88.3641 59.7073Z" fill="white" stroke="white" stroke-width="0.2"/>
<path d="M71.0293 39.1644C77.2278 35.0124 85.3125 36.0757 89.0342 41.5785C92.7558 47.0813 90.7207 54.9298 84.5371 59.0844L84.5381 59.0853C82.4539 60.5712 79.9907 61.4432 77.4316 61.6C74.8932 61.7555 72.3623 61.2003 70.124 60.0004L55.5605 70.2855L69.4619 79.1371H69.4629C70.1473 79.5584 70.7392 80.1136 71.2031 80.7679C71.6669 81.4222 71.9937 82.1629 72.1631 82.9457C72.3324 83.7287 72.3408 84.5381 72.1885 85.3246C72.0361 86.1109 71.726 86.8587 71.2764 87.5228C70.8267 88.1871 70.2464 88.7539 69.5713 89.1898C68.8962 89.6257 68.1394 89.9219 67.3467 90.0599C66.5541 90.1979 65.7416 90.1754 64.958 89.9935C64.1744 89.8116 63.4356 89.474 62.7861 89.0013V89.0004L45.9189 77.0902L29.0527 88.9926C28.4039 89.4512 27.6694 89.7763 26.8926 89.9486C26.1159 90.1208 25.3123 90.1375 24.5293 89.9965C23.7462 89.8554 22.9989 89.5596 22.332 89.1273C21.7487 88.7491 21.237 88.2726 20.8193 87.7201L20.6465 87.4789C20.1986 86.8216 19.8876 86.0812 19.7324 85.3021C19.5773 84.5232 19.5811 83.7213 19.7432 82.9437C19.9052 82.166 20.2221 81.4282 20.6758 80.7748C21.1294 80.1215 21.7104 79.5658 22.3838 79.14L36.2695 70.2797L21.7168 59.9994C19.4785 61.1986 16.9482 61.753 14.4102 61.597C11.851 61.4398 9.38771 60.5679 7.30371 59.0814V59.0804C4.39645 57.1726 2.28255 54.2811 1.35449 50.9408V50.9418C0.890161 49.3719 0.779595 47.7191 1.03125 46.1019C1.28296 44.4846 1.89072 42.942 2.81055 41.5853C3.73035 40.2288 4.93987 39.091 6.35254 38.2533C7.76474 37.4159 9.34541 36.8993 10.9814 36.7396L11.6309 36.6801C14.877 36.4554 18.1115 37.3311 20.8018 39.1752L21.2021 39.4379C23.1788 40.7847 24.7669 42.6278 25.8027 44.7836C26.8984 47.0639 27.3307 49.6028 27.0547 52.1146L45.9189 64.1371L64.7812 52.1068C64.5113 49.596 64.9471 47.0591 66.041 44.7797C67.0753 42.6247 68.6585 40.7802 70.6299 39.4281L71.0293 39.1644ZM19.0264 41.8031C16.7966 40.2653 14.0819 39.5831 11.3857 39.8842L11.3828 39.8851C10.1978 39.9869 9.05076 40.3509 8.02539 40.9506C6.99993 41.5503 6.12177 42.3702 5.45605 43.351C4.79039 44.3316 4.3539 45.4482 4.17773 46.6185C4.02359 47.6428 4.07259 48.6858 4.32031 49.6888L4.43848 50.1156V50.1176L4.34277 50.1449L4.43848 50.1185C5.12236 52.556 6.61742 54.6849 8.6709 56.1615L9.08887 56.4476L9.09375 56.4506L9.03613 56.5287L9.09375 56.4515C10.7786 57.6922 12.8051 58.3901 14.9004 58.4515C16.9956 58.5129 19.0592 57.9341 20.8145 56.7943C21.0838 56.6 21.4076 56.4949 21.7402 56.4926C22.0746 56.4903 22.4019 56.592 22.6748 56.7845L64.626 86.4105L64.8008 86.5238C65.2184 86.7738 65.6958 86.9111 66.1855 86.9203C66.7451 86.9307 67.2953 86.7738 67.7637 86.4691C68.232 86.1645 68.5967 85.7262 68.8115 85.2123C69.0263 84.6984 69.0808 84.1323 68.9678 83.5873V83.5863C68.8937 83.2245 68.7476 82.8807 68.5371 82.5765C68.3791 82.3482 68.187 82.1457 67.9688 81.975L67.7422 81.8158L24.4219 54.2113C24.1399 54.0316 23.9211 53.7684 23.7979 53.4584C23.6753 53.1501 23.6529 52.8112 23.7334 52.4896L23.8027 52.1058C24.1082 50.1804 23.8536 48.205 23.0654 46.4144C22.2249 44.5048 20.817 42.8967 19.0312 41.806L19.0264 41.8031ZM24.0977 81.8168C23.7841 82.0147 23.514 82.2737 23.3027 82.5775C23.0915 82.8814 22.9437 83.2246 22.8682 83.5863C22.7927 83.9478 22.7903 84.3207 22.8623 84.683C22.9342 85.0446 23.0785 85.3884 23.2861 85.6937L23.458 85.9115C23.8812 86.3968 24.4597 86.7277 25.1006 86.8441C25.7414 86.9605 26.4004 86.8544 26.9688 86.5492L27.207 86.4056L43.1533 75.1371L39.0762 72.2592L24.0977 81.8168ZM86.3857 43.3392C83.658 39.3189 77.569 38.6027 72.8145 41.7914L72.8105 41.7933C71.0288 42.8885 69.6243 44.4974 68.7832 46.4056C67.9428 48.3124 67.7047 50.4287 68.1006 52.473L68.126 52.5941C68.1746 52.8797 68.1439 53.1739 68.0361 53.4447C67.9283 53.7153 67.7483 53.9505 67.5166 54.1254L67.4141 54.1967L48.8828 66.0219L52.6611 68.432L69.1592 56.7787L69.2646 56.7113C69.5145 56.5628 69.8012 56.4847 70.0938 56.4867C70.4264 56.489 70.7502 56.5941 71.0195 56.7885L71.3516 56.9955C73.0323 57.9986 74.969 58.5037 76.9336 58.4467C79.0291 58.3858 81.0558 57.688 82.7412 56.4476L82.7451 56.4457L83.1816 56.139C87.595 52.8902 89.0279 47.2336 86.3857 43.3392Z" fill="white" stroke="white" stroke-width="0.2"/>
<path d="M15.8101 1.19275L17.4361 3.6283H17.7183L17.44 3.81189C14.3996 5.815 12.119 8.77214 10.9605 12.2123C9.80216 15.6523 9.83188 19.379 11.0455 22.8002L11.0787 22.8939L10.984 22.9271L8.16365 23.9222L8.0699 23.9554L8.0367 23.8607C6.58522 19.7721 6.54793 15.3183 7.93123 11.2064C9.31455 7.09454 12.0389 3.56049 15.6715 1.16541L15.7545 1.10974L15.8101 1.19275Z" fill="white" stroke="white" stroke-width="0.2"/>
<path d="M12.3058 25.5128L12.5148 25.8595C13.0105 26.6625 13.5747 27.4217 14.2013 28.129L14.2677 28.2042L14.1916 28.2706L11.9474 30.2394L11.8732 30.3048L11.8068 30.2296C10.9512 29.2637 10.1935 28.2163 9.5441 27.1027L9.49332 27.0157L9.58023 26.9659L12.1701 25.4767L12.256 25.4279L12.3058 25.5128Z" fill="white" stroke="white" stroke-width="0.2"/>
<path d="M45.9199 0.900391C48.1292 0.900391 50.3052 1.43817 52.2578 2.4668C54.1788 3.47883 55.8251 4.93647 57.0605 6.71484C59.4304 4.86721 62.3575 3.86653 65.3701 3.87695C68.8718 3.85883 72.2452 5.1889 74.7841 7.58887C77.3231 9.98898 78.8311 13.2737 78.9922 16.7549C79.1532 20.236 77.955 23.6445 75.6484 26.2666C73.3583 28.8698 70.1514 30.4966 66.6914 30.8154L62.4463 51.9336L62.4267 52.0322L62.3281 52.0117L59.3955 51.416L59.2978 51.3965L59.3174 51.2988L60.1308 47.25H31.709L32.5224 51.3105L32.542 51.4092L32.4443 51.4287L29.5117 52.0117L29.414 52.0312L29.3945 51.9336L25.1484 30.8086C21.702 30.4733 18.5137 28.8403 16.2383 26.2402C13.9463 23.6213 12.7564 20.2241 12.917 16.7549C13.0775 13.2858 14.5756 10.0116 17.0996 7.61328C19.6236 5.21502 22.9799 3.87666 26.4697 3.87695L27.04 3.8877C29.85 3.9969 32.5583 4.98439 34.7783 6.71484C36.0138 4.93609 37.6616 3.47898 39.583 2.4668C41.5354 1.43826 43.7108 0.90044 45.9199 0.900391ZM45.9199 4.08008C43.9731 4.08014 42.0659 4.62654 40.417 5.65625C38.8711 6.62161 37.6106 7.97459 36.7617 9.57715L36.5976 9.90137C36.4848 10.1325 36.3171 10.3329 36.1093 10.4854C35.9015 10.6379 35.6594 10.7383 35.4043 10.7773C35.1493 10.8163 34.8886 10.7932 34.6445 10.71C34.4004 10.6267 34.1803 10.4854 34.0029 10.2988L34.0019 10.2979C33.0382 9.27127 31.8719 8.45356 30.5761 7.89551C29.4423 7.4072 28.2302 7.12741 26.999 7.06738L26.4697 7.05469C23.7184 7.05472 21.08 8.14254 19.1347 10.0781C17.1895 12.0137 16.0966 14.6389 16.0966 17.376C16.0967 20.113 17.1895 22.7383 19.1347 24.6738C21.08 26.6093 23.7185 27.6963 26.4697 27.6963L26.6074 27.7021C26.9259 27.7295 27.2301 27.8521 27.4795 28.0547C27.7644 28.2862 27.9605 28.6089 28.0341 28.9678L31.0703 44.0723H36.5986L35.3633 35.4658L35.3486 35.3672L35.4482 35.3525L38.4101 34.9297L38.5088 34.916L38.5234 35.0146L39.8232 44.0723H44.3242V27.6963H47.5166V44.0723H52.0175L53.3174 35.0146L53.331 34.916L53.4306 34.9297L56.3925 35.3525L56.4922 35.3672L56.4775 35.4658L55.2422 44.0723H60.7695L63.8066 28.9678L63.8398 28.835C63.9305 28.5295 64.1118 28.2573 64.3613 28.0547C64.6463 27.8232 65.0033 27.6962 65.3711 27.6963L65.8847 27.6836C68.4488 27.5571 70.8822 26.4885 72.706 24.6738C74.6513 22.7383 75.744 20.113 75.7441 17.376C75.7441 14.639 74.6512 12.0137 72.706 10.0781C70.7608 8.14262 68.1222 7.05481 65.3711 7.05469H65.3701C63.958 7.05112 62.5605 7.33745 61.2646 7.89551C59.9689 8.45353 58.8026 9.27129 57.8388 10.2979L57.8379 10.2988C57.6605 10.4855 57.4404 10.6266 57.1963 10.71C56.9521 10.7933 56.6906 10.8164 56.4355 10.7773C56.1805 10.7383 55.9391 10.6378 55.7314 10.4854C55.5757 10.3711 55.4423 10.2302 55.3379 10.0693L55.2431 9.90137C54.3967 8.15721 53.0726 6.686 51.4238 5.65625C49.7748 4.62649 47.8668 4.08008 45.9199 4.08008Z" fill="white" stroke="white" stroke-width="0.2"/>
</svg>
