<svg width="109" height="66" viewBox="0 0 109 66" fill="none" xmlns="http://www.w3.org/2000/svg">
<path d="M54.0361 30.8886C61.9036 30.8886 68.294 24.4839 68.294 16.6307C68.294 8.77743 61.8893 2.37268 54.0361 2.37268C46.1828 2.37268 39.7781 8.77743 39.7781 16.6307C39.7781 24.4839 46.1828 30.8886 54.0361 30.8886ZM54.0361 7.08833C59.2918 7.08833 63.5693 11.3658 63.5693 16.6216C63.5693 21.8773 59.2918 26.1548 54.0361 26.1548C48.7803 26.1548 44.5028 21.8773 44.5028 16.6216C44.5028 11.3658 48.7803 7.08833 54.0361 7.08833Z" fill="white"/>
<path d="M61.8891 33.8335H46.177C34.1516 33.8335 24.3694 43.6159 24.3694 55.641V58.525C24.3694 62.1888 27.3457 65.165 31.0095 65.165H77.0556C80.7194 65.165 83.6956 62.1888 83.6956 58.525V55.641C83.6956 43.6156 73.9142 33.8335 61.8891 33.8335ZM78.9715 58.5198C78.9715 59.5718 78.1086 60.4347 77.0565 60.4347H31.014C29.9619 60.4347 29.099 59.5718 29.099 58.5198V55.6358C29.099 46.2225 36.7635 38.5534 46.1814 38.5534H61.8936C71.3069 38.5534 78.976 46.2179 78.976 55.6358V58.5198H78.9715Z" fill="white"/>
<path d="M85.1732 22.7165C91.4349 22.7165 96.5246 17.6269 96.5246 11.3513C96.5246 5.08042 91.4349 0 85.1732 0C78.9115 0 73.8219 5.08964 73.8219 11.3513C73.8219 17.613 78.9115 22.7165 85.1732 22.7165ZM85.1732 4.72569C88.8371 4.72569 91.7995 7.70191 91.7995 11.3519C91.7995 15.002 88.8233 17.992 85.1732 17.992C81.5232 17.992 78.547 15.0158 78.547 11.3519C78.547 7.68809 81.5232 4.72569 85.1732 4.72569Z" fill="white"/>
<path d="M89.3312 24.9739H81.0255C76.7249 24.9739 72.6735 26.3812 69.305 29.0621C68.2898 29.8789 68.1099 31.3555 68.9266 32.3799C69.7434 33.395 71.2199 33.575 72.2443 32.7583C74.7592 30.7602 77.7954 29.699 81.0209 29.699H89.3266C97.111 29.699 103.442 36.0299 103.442 43.814C103.442 44.5108 102.874 45.0784 102.177 45.0784H87.7894C86.4881 45.0784 85.4269 46.1397 85.4269 47.4409C85.4269 48.7422 86.4882 49.8034 87.7894 49.8034H102.177C105.486 49.8034 108.167 47.1226 108.167 43.814C108.167 33.4179 99.7086 24.9739 89.3266 24.9739L89.3312 24.9739Z" fill="white"/>
<path d="M23.747 22.7165C30.0087 22.7165 35.0983 17.6269 35.0983 11.3513C35.0983 5.08042 30.0087 0 23.747 0C17.4853 0 12.3956 5.08964 12.3956 11.3513C12.3956 17.613 17.4853 22.7165 23.747 22.7165ZM23.747 4.72569C27.4108 4.72569 30.3732 7.70191 30.3732 11.3519C30.3732 15.002 27.397 17.992 23.747 17.992C20.0969 17.992 17.1207 15.0158 17.1207 11.3519C17.1207 7.68809 20.0969 4.72569 23.747 4.72569Z" fill="white"/>
<path d="M22.2621 47.4406C22.2621 46.1393 21.2008 45.078 19.8995 45.078H6.73897C6.0422 45.078 5.47465 44.5104 5.47465 43.8137C5.47465 36.0293 11.8056 29.6986 19.5897 29.6986H27.8955C31.0517 29.6986 34.0372 30.7138 36.5289 32.638C37.5579 33.4409 39.0437 33.2425 39.8467 32.2135C40.6496 31.1845 40.4604 29.6987 39.4221 28.8958C36.1044 26.3209 32.1084 24.9644 27.9047 24.9644H19.5989C9.20278 24.9644 0.758789 33.4225 0.758789 43.8045C0.758789 47.113 3.43969 49.7939 6.7482 49.7939H19.9088C21.2101 49.7939 22.2713 48.7326 22.2713 47.4314L22.2621 47.4406Z" fill="white"/>
</svg>
