<svg width="92" height="80" viewBox="0 0 92 80" fill="none" xmlns="http://www.w3.org/2000/svg">
<mask id="path-1-outside-1_54_12945" maskUnits="userSpaceOnUse" x="0.00012207" y="0" width="92" height="80" fill="black">
<rect fill="white" x="0.00012207" width="92" height="80"/>
<path fill-rule="evenodd" clip-rule="evenodd" d="M1.00012 36.9376V18.0586C1.00012 16.0195 1.80871 14.0664 3.25012 12.625C4.69153 11.1836 6.64852 10.375 8.68372 10.375H16.6251V7.25C16.6251 3.7969 19.422 1 22.8751 1C26.3282 1 29.1251 3.7969 29.1251 7.25V10.375H51.0001V7.25C51.0001 3.7969 53.797 1 57.2501 1C60.7032 1 63.5001 3.7969 63.5001 7.25V10.375H71.4415C75.6837 10.375 79.1251 13.8164 79.1251 18.0586V19.75H83.9415C88.1837 19.75 91.6251 23.1914 91.6251 27.4336V71.4416C91.6251 75.6838 88.1837 79.1252 83.9415 79.1252H58.8125C57.9492 79.1252 57.25 78.426 57.25 77.5627C57.25 76.6994 57.9492 76.0002 58.8125 76.0002H83.9415C86.461 76.0002 88.5001 73.9611 88.5001 71.4416V27.4336C88.5001 24.9141 86.461 22.875 83.9415 22.875H79.1251V62.066C79.1251 66.3082 75.6837 69.7496 71.4415 69.7496H16.6255V71.441C16.6255 73.9605 18.6646 75.9996 21.1841 75.9996H52.5631C53.4264 75.9996 54.1256 76.6988 54.1256 77.5621C54.1256 78.4254 53.4264 79.1246 52.5631 79.1246H21.1841C16.9419 79.1246 13.5005 75.6832 13.5005 71.441V69.7496H8.68412C4.44192 69.7496 1.00052 66.3082 1.00052 62.066V52.5621C1.00052 51.6988 1.69974 50.9996 2.56302 50.9996C3.4263 50.9996 4.12552 51.6988 4.12552 52.5621V62.066C4.12552 64.5855 6.16462 66.6246 8.68412 66.6246H71.4421C73.9616 66.6246 76.0007 64.5855 76.0007 62.066V29.125H4.12572V36.9375C4.12572 37.8008 3.4265 38.5 2.56322 38.5C1.69994 38.5 1.00012 37.8009 1.00012 36.9376ZM16.6251 13.4996H8.68372C7.47282 13.4996 6.31652 13.9801 5.45712 14.8355C4.60556 15.691 4.12122 16.8511 4.12122 18.0621V26.0035H75.9962V18.0621C75.9962 15.5426 73.9571 13.5035 71.4376 13.5035H63.4962V16.6285C63.4962 20.0816 60.6993 22.8785 57.2462 22.8785C53.7931 22.8785 50.9962 20.0816 50.9962 16.6285V13.5035H29.1212V16.6285C29.1212 20.0816 26.3243 22.8785 22.8712 22.8785C19.4181 22.8785 16.6212 20.0816 16.6212 16.6285V13.5035L16.6251 13.4996ZM26.0001 16.6246V7.2496C26.0001 5.523 24.6017 4.1246 22.8751 4.1246C21.1485 4.1246 19.7501 5.523 19.7501 7.2496V16.6246C19.7501 18.3512 21.1485 19.7496 22.8751 19.7496C24.6017 19.7496 26.0001 18.3512 26.0001 16.6246ZM60.3751 16.6246V7.2496C60.3751 5.523 58.9767 4.1246 57.2501 4.1246C55.5235 4.1246 54.1251 5.523 54.1251 7.2496V16.6246C54.1251 18.3512 55.5235 19.7496 57.2501 19.7496C58.9767 19.7496 60.3751 18.3512 60.3751 16.6246ZM4.12512 46.3126C4.12512 47.1759 3.4259 47.8751 2.56262 47.8751C1.69934 47.8751 1.00012 47.1759 1.00012 46.3126V43.1876C1.00012 42.3243 1.69934 41.6251 2.56262 41.6251C3.4259 41.6251 4.12512 42.3243 4.12512 43.1876V46.3126ZM26.0001 33.8126V43.1876C26.0001 44.0509 25.3009 44.7501 24.4376 44.7501H15.0626C14.1993 44.7501 13.5001 44.0509 13.5001 43.1876V33.8126C13.5001 32.9493 14.1993 32.2501 15.0626 32.2501H24.4376C25.3009 32.2501 26.0001 32.9493 26.0001 33.8126ZM22.8751 35.3751H16.6251V41.6251H22.8751V35.3751ZM46.3131 33.8126V43.1876C46.3131 44.0509 45.6139 44.7501 44.7506 44.7501H35.3756C34.5123 44.7501 33.8131 44.0509 33.8131 43.1876V33.8126C33.8131 32.9493 34.5123 32.2501 35.3756 32.2501H44.7506C45.6139 32.2501 46.3131 32.9493 46.3131 33.8126ZM43.1881 35.3751H36.9381V41.6251H43.1881V35.3751ZM66.6261 33.8126V43.1876C66.6261 44.0509 65.9269 44.7501 65.0636 44.7501H55.6886C54.8253 44.7501 54.1261 44.0509 54.1261 43.1876V33.8126C54.1261 32.9493 54.8253 32.2501 55.6886 32.2501H65.0636C65.9269 32.2501 66.6261 32.9493 66.6261 33.8126ZM63.5011 35.3751H57.2511V41.6251H63.5011V35.3751ZM26.0011 52.5631V61.9381C26.0011 62.8014 25.3019 63.5006 24.4386 63.5006H15.0636C14.2003 63.5006 13.5011 62.8014 13.5011 61.9381V52.5631C13.5011 51.6998 14.2003 51.0006 15.0636 51.0006H24.4386C25.3019 51.0006 26.0011 51.6998 26.0011 52.5631ZM22.8761 54.1256H16.6261V60.3756H22.8761V54.1256ZM46.3141 52.5631V61.9381C46.3141 62.8014 45.6149 63.5006 44.7516 63.5006H35.3766C34.5133 63.5006 33.8141 62.8014 33.8141 61.9381V52.5631C33.8141 51.6998 34.5133 51.0006 35.3766 51.0006H44.7516C45.6149 51.0006 46.3141 51.6998 46.3141 52.5631ZM43.1891 54.1256H36.9391V60.3756H43.1891V54.1256ZM66.6271 52.5631V61.9381C66.6271 62.8014 65.9279 63.5006 65.0646 63.5006H55.6896C54.8263 63.5006 54.1271 62.8014 54.1271 61.9381V52.5631C54.1271 51.6998 54.8263 51.0006 55.6896 51.0006H65.0646C65.9279 51.0006 66.6271 51.6998 66.6271 52.5631ZM63.5021 54.1256H57.2521V60.3756H63.5021V54.1256Z"/>
</mask>
<path fill-rule="evenodd" clip-rule="evenodd" d="M1.00012 36.9376V18.0586C1.00012 16.0195 1.80871 14.0664 3.25012 12.625C4.69153 11.1836 6.64852 10.375 8.68372 10.375H16.6251V7.25C16.6251 3.7969 19.422 1 22.8751 1C26.3282 1 29.1251 3.7969 29.1251 7.25V10.375H51.0001V7.25C51.0001 3.7969 53.797 1 57.2501 1C60.7032 1 63.5001 3.7969 63.5001 7.25V10.375H71.4415C75.6837 10.375 79.1251 13.8164 79.1251 18.0586V19.75H83.9415C88.1837 19.75 91.6251 23.1914 91.6251 27.4336V71.4416C91.6251 75.6838 88.1837 79.1252 83.9415 79.1252H58.8125C57.9492 79.1252 57.25 78.426 57.25 77.5627C57.25 76.6994 57.9492 76.0002 58.8125 76.0002H83.9415C86.461 76.0002 88.5001 73.9611 88.5001 71.4416V27.4336C88.5001 24.9141 86.461 22.875 83.9415 22.875H79.1251V62.066C79.1251 66.3082 75.6837 69.7496 71.4415 69.7496H16.6255V71.441C16.6255 73.9605 18.6646 75.9996 21.1841 75.9996H52.5631C53.4264 75.9996 54.1256 76.6988 54.1256 77.5621C54.1256 78.4254 53.4264 79.1246 52.5631 79.1246H21.1841C16.9419 79.1246 13.5005 75.6832 13.5005 71.441V69.7496H8.68412C4.44192 69.7496 1.00052 66.3082 1.00052 62.066V52.5621C1.00052 51.6988 1.69974 50.9996 2.56302 50.9996C3.4263 50.9996 4.12552 51.6988 4.12552 52.5621V62.066C4.12552 64.5855 6.16462 66.6246 8.68412 66.6246H71.4421C73.9616 66.6246 76.0007 64.5855 76.0007 62.066V29.125H4.12572V36.9375C4.12572 37.8008 3.4265 38.5 2.56322 38.5C1.69994 38.5 1.00012 37.8009 1.00012 36.9376ZM16.6251 13.4996H8.68372C7.47282 13.4996 6.31652 13.9801 5.45712 14.8355C4.60556 15.691 4.12122 16.8511 4.12122 18.0621V26.0035H75.9962V18.0621C75.9962 15.5426 73.9571 13.5035 71.4376 13.5035H63.4962V16.6285C63.4962 20.0816 60.6993 22.8785 57.2462 22.8785C53.7931 22.8785 50.9962 20.0816 50.9962 16.6285V13.5035H29.1212V16.6285C29.1212 20.0816 26.3243 22.8785 22.8712 22.8785C19.4181 22.8785 16.6212 20.0816 16.6212 16.6285V13.5035L16.6251 13.4996ZM26.0001 16.6246V7.2496C26.0001 5.523 24.6017 4.1246 22.8751 4.1246C21.1485 4.1246 19.7501 5.523 19.7501 7.2496V16.6246C19.7501 18.3512 21.1485 19.7496 22.8751 19.7496C24.6017 19.7496 26.0001 18.3512 26.0001 16.6246ZM60.3751 16.6246V7.2496C60.3751 5.523 58.9767 4.1246 57.2501 4.1246C55.5235 4.1246 54.1251 5.523 54.1251 7.2496V16.6246C54.1251 18.3512 55.5235 19.7496 57.2501 19.7496C58.9767 19.7496 60.3751 18.3512 60.3751 16.6246ZM4.12512 46.3126C4.12512 47.1759 3.4259 47.8751 2.56262 47.8751C1.69934 47.8751 1.00012 47.1759 1.00012 46.3126V43.1876C1.00012 42.3243 1.69934 41.6251 2.56262 41.6251C3.4259 41.6251 4.12512 42.3243 4.12512 43.1876V46.3126ZM26.0001 33.8126V43.1876C26.0001 44.0509 25.3009 44.7501 24.4376 44.7501H15.0626C14.1993 44.7501 13.5001 44.0509 13.5001 43.1876V33.8126C13.5001 32.9493 14.1993 32.2501 15.0626 32.2501H24.4376C25.3009 32.2501 26.0001 32.9493 26.0001 33.8126ZM22.8751 35.3751H16.6251V41.6251H22.8751V35.3751ZM46.3131 33.8126V43.1876C46.3131 44.0509 45.6139 44.7501 44.7506 44.7501H35.3756C34.5123 44.7501 33.8131 44.0509 33.8131 43.1876V33.8126C33.8131 32.9493 34.5123 32.2501 35.3756 32.2501H44.7506C45.6139 32.2501 46.3131 32.9493 46.3131 33.8126ZM43.1881 35.3751H36.9381V41.6251H43.1881V35.3751ZM66.6261 33.8126V43.1876C66.6261 44.0509 65.9269 44.7501 65.0636 44.7501H55.6886C54.8253 44.7501 54.1261 44.0509 54.1261 43.1876V33.8126C54.1261 32.9493 54.8253 32.2501 55.6886 32.2501H65.0636C65.9269 32.2501 66.6261 32.9493 66.6261 33.8126ZM63.5011 35.3751H57.2511V41.6251H63.5011V35.3751ZM26.0011 52.5631V61.9381C26.0011 62.8014 25.3019 63.5006 24.4386 63.5006H15.0636C14.2003 63.5006 13.5011 62.8014 13.5011 61.9381V52.5631C13.5011 51.6998 14.2003 51.0006 15.0636 51.0006H24.4386C25.3019 51.0006 26.0011 51.6998 26.0011 52.5631ZM22.8761 54.1256H16.6261V60.3756H22.8761V54.1256ZM46.3141 52.5631V61.9381C46.3141 62.8014 45.6149 63.5006 44.7516 63.5006H35.3766C34.5133 63.5006 33.8141 62.8014 33.8141 61.9381V52.5631C33.8141 51.6998 34.5133 51.0006 35.3766 51.0006H44.7516C45.6149 51.0006 46.3141 51.6998 46.3141 52.5631ZM43.1891 54.1256H36.9391V60.3756H43.1891V54.1256ZM66.6271 52.5631V61.9381C66.6271 62.8014 65.9279 63.5006 65.0646 63.5006H55.6896C54.8263 63.5006 54.1271 62.8014 54.1271 61.9381V52.5631C54.1271 51.6998 54.8263 51.0006 55.6896 51.0006H65.0646C65.9279 51.0006 66.6271 51.6998 66.6271 52.5631ZM63.5021 54.1256H57.2521V60.3756H63.5021V54.1256Z" fill="white"/>
<path fill-rule="evenodd" clip-rule="evenodd" d="M1.00012 36.9376V18.0586C1.00012 16.0195 1.80871 14.0664 3.25012 12.625C4.69153 11.1836 6.64852 10.375 8.68372 10.375H16.6251V7.25C16.6251 3.7969 19.422 1 22.8751 1C26.3282 1 29.1251 3.7969 29.1251 7.25V10.375H51.0001V7.25C51.0001 3.7969 53.797 1 57.2501 1C60.7032 1 63.5001 3.7969 63.5001 7.25V10.375H71.4415C75.6837 10.375 79.1251 13.8164 79.1251 18.0586V19.75H83.9415C88.1837 19.75 91.6251 23.1914 91.6251 27.4336V71.4416C91.6251 75.6838 88.1837 79.1252 83.9415 79.1252H58.8125C57.9492 79.1252 57.25 78.426 57.25 77.5627C57.25 76.6994 57.9492 76.0002 58.8125 76.0002H83.9415C86.461 76.0002 88.5001 73.9611 88.5001 71.4416V27.4336C88.5001 24.9141 86.461 22.875 83.9415 22.875H79.1251V62.066C79.1251 66.3082 75.6837 69.7496 71.4415 69.7496H16.6255V71.441C16.6255 73.9605 18.6646 75.9996 21.1841 75.9996H52.5631C53.4264 75.9996 54.1256 76.6988 54.1256 77.5621C54.1256 78.4254 53.4264 79.1246 52.5631 79.1246H21.1841C16.9419 79.1246 13.5005 75.6832 13.5005 71.441V69.7496H8.68412C4.44192 69.7496 1.00052 66.3082 1.00052 62.066V52.5621C1.00052 51.6988 1.69974 50.9996 2.56302 50.9996C3.4263 50.9996 4.12552 51.6988 4.12552 52.5621V62.066C4.12552 64.5855 6.16462 66.6246 8.68412 66.6246H71.4421C73.9616 66.6246 76.0007 64.5855 76.0007 62.066V29.125H4.12572V36.9375C4.12572 37.8008 3.4265 38.5 2.56322 38.5C1.69994 38.5 1.00012 37.8009 1.00012 36.9376ZM16.6251 13.4996H8.68372C7.47282 13.4996 6.31652 13.9801 5.45712 14.8355C4.60556 15.691 4.12122 16.8511 4.12122 18.0621V26.0035H75.9962V18.0621C75.9962 15.5426 73.9571 13.5035 71.4376 13.5035H63.4962V16.6285C63.4962 20.0816 60.6993 22.8785 57.2462 22.8785C53.7931 22.8785 50.9962 20.0816 50.9962 16.6285V13.5035H29.1212V16.6285C29.1212 20.0816 26.3243 22.8785 22.8712 22.8785C19.4181 22.8785 16.6212 20.0816 16.6212 16.6285V13.5035L16.6251 13.4996ZM26.0001 16.6246V7.2496C26.0001 5.523 24.6017 4.1246 22.8751 4.1246C21.1485 4.1246 19.7501 5.523 19.7501 7.2496V16.6246C19.7501 18.3512 21.1485 19.7496 22.8751 19.7496C24.6017 19.7496 26.0001 18.3512 26.0001 16.6246ZM60.3751 16.6246V7.2496C60.3751 5.523 58.9767 4.1246 57.2501 4.1246C55.5235 4.1246 54.1251 5.523 54.1251 7.2496V16.6246C54.1251 18.3512 55.5235 19.7496 57.2501 19.7496C58.9767 19.7496 60.3751 18.3512 60.3751 16.6246ZM4.12512 46.3126C4.12512 47.1759 3.4259 47.8751 2.56262 47.8751C1.69934 47.8751 1.00012 47.1759 1.00012 46.3126V43.1876C1.00012 42.3243 1.69934 41.6251 2.56262 41.6251C3.4259 41.6251 4.12512 42.3243 4.12512 43.1876V46.3126ZM26.0001 33.8126V43.1876C26.0001 44.0509 25.3009 44.7501 24.4376 44.7501H15.0626C14.1993 44.7501 13.5001 44.0509 13.5001 43.1876V33.8126C13.5001 32.9493 14.1993 32.2501 15.0626 32.2501H24.4376C25.3009 32.2501 26.0001 32.9493 26.0001 33.8126ZM22.8751 35.3751H16.6251V41.6251H22.8751V35.3751ZM46.3131 33.8126V43.1876C46.3131 44.0509 45.6139 44.7501 44.7506 44.7501H35.3756C34.5123 44.7501 33.8131 44.0509 33.8131 43.1876V33.8126C33.8131 32.9493 34.5123 32.2501 35.3756 32.2501H44.7506C45.6139 32.2501 46.3131 32.9493 46.3131 33.8126ZM43.1881 35.3751H36.9381V41.6251H43.1881V35.3751ZM66.6261 33.8126V43.1876C66.6261 44.0509 65.9269 44.7501 65.0636 44.7501H55.6886C54.8253 44.7501 54.1261 44.0509 54.1261 43.1876V33.8126C54.1261 32.9493 54.8253 32.2501 55.6886 32.2501H65.0636C65.9269 32.2501 66.6261 32.9493 66.6261 33.8126ZM63.5011 35.3751H57.2511V41.6251H63.5011V35.3751ZM26.0011 52.5631V61.9381C26.0011 62.8014 25.3019 63.5006 24.4386 63.5006H15.0636C14.2003 63.5006 13.5011 62.8014 13.5011 61.9381V52.5631C13.5011 51.6998 14.2003 51.0006 15.0636 51.0006H24.4386C25.3019 51.0006 26.0011 51.6998 26.0011 52.5631ZM22.8761 54.1256H16.6261V60.3756H22.8761V54.1256ZM46.3141 52.5631V61.9381C46.3141 62.8014 45.6149 63.5006 44.7516 63.5006H35.3766C34.5133 63.5006 33.8141 62.8014 33.8141 61.9381V52.5631C33.8141 51.6998 34.5133 51.0006 35.3766 51.0006H44.7516C45.6149 51.0006 46.3141 51.6998 46.3141 52.5631ZM43.1891 54.1256H36.9391V60.3756H43.1891V54.1256ZM66.6271 52.5631V61.9381C66.6271 62.8014 65.9279 63.5006 65.0646 63.5006H55.6896C54.8263 63.5006 54.1271 62.8014 54.1271 61.9381V52.5631C54.1271 51.6998 54.8263 51.0006 55.6896 51.0006H65.0646C65.9279 51.0006 66.6271 51.6998 66.6271 52.5631ZM63.5021 54.1256H57.2521V60.3756H63.5021V54.1256Z" stroke="white" stroke-width="0.4" mask="url(#path-1-outside-1_54_12945)"/>
</svg>
