<svg width="90" height="86" viewBox="0 0 90 86" fill="none" xmlns="http://www.w3.org/2000/svg">
<path d="M44.9847 0.802734C45.4473 0.779622 45.9051 0.909213 46.2865 1.17188L46.4252 1.27637C46.7369 1.53121 46.9706 1.87073 47.0961 2.25586H47.0951L56.223 29.6396L56.2738 29.7744C56.554 30.4346 57.2037 30.871 57.9301 30.8711H87.181L87.3461 30.8779C87.7308 30.9094 88.1006 31.0461 88.4144 31.2744C88.773 31.5353 89.0402 31.9028 89.1781 32.3242C89.2987 32.6929 89.3151 33.0864 89.2269 33.4619L89.183 33.6221C89.048 34.0445 88.7829 34.4134 88.4261 34.6768L88.4252 34.6777L64.6625 52.0537C64.0361 52.5118 63.7742 53.3199 64.0121 54.0586L73.1517 82.4385L73.1976 82.5986C73.2751 82.9222 73.2744 83.2596 73.1967 83.583L73.1517 83.7441C73.0307 84.1152 72.8086 84.4437 72.5131 84.6953L72.3822 84.7988C72.0658 85.0277 71.6932 85.164 71.306 85.1934L71.14 85.1992C70.7499 85.198 70.3686 85.0886 70.0385 84.8848L69.8998 84.791L46.1517 67.4258C45.5585 66.992 44.7659 66.9651 44.1478 67.3447L44.0267 67.4258L20.2777 84.79L20.2787 84.791C19.9637 85.0218 19.5915 85.1606 19.2045 85.1924L19.0385 85.1992C18.6483 85.2004 18.2663 85.0934 17.9349 84.8916L17.7953 84.7988C17.4792 84.5701 17.2334 84.2587 17.0844 83.9004L17.0267 83.7441C16.8885 83.3201 16.8881 82.8627 17.0258 82.4385L26.1664 54.0586L26.2054 53.9189C26.3592 53.2665 26.1362 52.5811 25.6283 52.1436L25.515 52.0537L1.75232 34.6777L1.75134 34.6768C1.39475 34.4135 1.13047 34.0443 0.995483 33.6221C0.860529 33.1998 0.86161 32.7456 0.99939 32.3242L1.05701 32.168C1.20541 31.812 1.44954 31.5026 1.76306 31.2744C2.12167 31.0135 2.55398 30.8725 2.99744 30.8711H32.2474C33.0222 30.8711 33.7105 30.3747 33.9554 29.6396L43.0824 2.25488C43.2149 1.84866 43.4684 1.49276 43.808 1.2334L43.9379 1.14062C44.2499 0.937756 44.6112 0.821974 44.9847 0.803711V0.802734ZM46.7963 14.7139C46.2663 13.1244 44.0721 13.0745 43.4379 14.5645L43.3812 14.7139L37.0736 33.6396C36.9524 34.0094 36.7314 34.337 36.4369 34.5879L36.306 34.6914C35.9459 34.9521 35.5124 35.0912 35.0677 35.0908V35.0918H14.9769C13.2361 35.0918 12.5093 37.3171 13.9144 38.3447L30.3002 50.3281L30.4301 50.4316C30.7229 50.6835 30.9413 51.0122 31.0609 51.3818L31.1058 51.541C31.1956 51.917 31.1808 52.3119 31.0609 52.6816L24.7455 72.2822C24.2108 73.9422 26.1129 75.3163 27.5209 74.2871L43.8431 62.3555L43.9828 62.2627C44.3145 62.0582 44.6974 61.9482 45.0892 61.9482C45.5369 61.9483 45.973 62.0911 46.3344 62.3555L62.6576 74.2871L62.7904 74.377C64.1368 75.2031 65.8374 73.9742 65.476 72.4365L65.433 72.2822L59.1166 52.6816L59.0717 52.5215C58.9818 52.1458 58.9971 51.7514 59.1166 51.3818L59.1742 51.2256C59.3217 50.8685 59.5648 50.5574 59.8783 50.3281L76.264 38.3447L76.389 38.2451C77.6223 37.1804 76.8877 35.0922 75.2015 35.0918H55.1107C54.7214 35.0922 54.3406 34.9849 54.0101 34.7832L53.8715 34.6914C53.511 34.4304 53.2423 34.0617 53.1039 33.6387V33.6377L46.7963 14.7139Z" fill="white" stroke="white" stroke-width="0.4"/>
</svg>
