<svg width="38" height="27" viewBox="0 0 38 27" fill="none" xmlns="http://www.w3.org/2000/svg">
<path d="M15.3449 15.5329H3.40473C3.03217 15.5329 2.67487 15.3848 2.41144 15.1213C2.148 14.8578 2 14.5003 2 14.1276V2.88571C2 2.51302 2.148 2.15559 2.41144 1.89205C2.67487 1.62852 3.03217 1.48047 3.40473 1.48047H13.9402C14.3128 1.48047 14.6701 1.62852 14.9335 1.89205C15.1969 2.15559 15.3449 2.51302 15.3449 2.88571V18.3434C15.3449 20.2068 14.6049 21.994 13.2878 23.3117C11.9706 24.6293 10.1841 25.3696 8.32129 25.3696" stroke="#0079BF" stroke-width="2.81118" stroke-linecap="round" stroke-linejoin="round"/>
<path d="M35.7136 15.5329H23.7734C23.4008 15.5329 23.0435 15.3848 22.7801 15.1213C22.5166 14.8578 22.3687 14.5003 22.3687 14.1276V2.88571C22.3687 2.51302 22.5166 2.15559 22.7801 1.89205C23.0435 1.62852 23.4008 1.48047 23.7734 1.48047H34.3089C34.6814 1.48047 35.0387 1.62852 35.3022 1.89205C35.5656 2.15559 35.7136 2.51302 35.7136 2.88571V18.3434C35.7136 20.2068 34.9736 21.994 33.6564 23.3117C32.3392 24.6293 30.5527 25.3696 28.6899 25.3696" stroke="#0079BF" stroke-width="2.81118" stroke-linecap="round" stroke-linejoin="round"/>
</svg>
