<svg width="38" height="27" viewBox="0 0 38 27" fill="none" xmlns="http://www.w3.org/2000/svg">
<path d="M22.3687 15.5329H34.3089C34.6815 15.5329 35.0387 15.3848 35.3022 15.1213C35.5656 14.8578 35.7136 14.5003 35.7136 14.1276V2.88571C35.7136 2.51302 35.5656 2.15559 35.3022 1.89205C35.0387 1.62852 34.6815 1.48047 34.3089 1.48047H23.7734C23.4009 1.48047 23.0436 1.62852 22.7801 1.89205C22.5167 2.15559 22.3687 2.51302 22.3687 2.88571V18.3434C22.3687 20.2068 23.1087 21.994 24.4259 23.3117C25.7431 24.6293 27.5295 25.3696 29.3923 25.3696" stroke="#0079BF" stroke-width="2.81118" stroke-linecap="round" stroke-linejoin="round"/>
<path d="M2.00003 15.5329H13.9402C14.3128 15.5329 14.6701 15.3848 14.9335 15.1213C15.197 14.8578 15.345 14.5003 15.345 14.1276V2.88571C15.345 2.51302 15.197 2.15559 14.9335 1.89205C14.6701 1.62852 14.3128 1.48047 13.9402 1.48047H3.40476C3.03221 1.48047 2.67491 1.62852 2.41147 1.89205C2.14803 2.15559 2.00003 2.51302 2.00003 2.88571V18.3434C2.00003 20.2068 2.74002 21.994 4.05721 23.3117C5.3744 24.6293 7.1609 25.3696 9.02368 25.3696" stroke="#0079BF" stroke-width="2.81118" stroke-linecap="round" stroke-linejoin="round"/>
</svg>
