<svg width="15" height="14" viewBox="0 0 15 14" fill="none" xmlns="http://www.w3.org/2000/svg">
<path d="M10.4814 0.300781L10.667 0.304688C12.5764 0.40179 14.0994 1.98588 14.0996 3.91895V9.88184C14.0994 11.8771 12.4767 13.4998 10.4814 13.5H4.51855C2.52324 13.4998 0.900578 11.8771 0.900391 9.88184V3.91895C0.900619 1.92365 2.52326 0.301009 4.51855 0.300781H10.4814ZM4.51855 1.2627C3.05395 1.26292 1.86253 2.45434 1.8623 3.91895V9.88184C1.86249 11.3464 3.05393 12.5379 4.51855 12.5381H10.4814C11.9461 12.5378 13.1375 11.3464 13.1377 9.88184V3.91895C13.1375 2.45432 11.946 1.26288 10.4814 1.2627H4.51855Z" fill="white" stroke="white" stroke-width="0.2"/>
<path d="M7.50012 3.24609C9.51534 3.24615 11.1544 4.88516 11.1544 6.90039C11.1544 8.91557 9.5153 10.5546 7.50012 10.5547C5.4849 10.5547 3.84588 8.9156 3.84583 6.90039C3.84583 4.88513 5.48486 3.24609 7.50012 3.24609ZM7.50012 4.20801C6.01565 4.20801 4.80774 5.41592 4.80774 6.90039C4.8078 8.38491 6.01568 9.59277 7.50012 9.59277C8.98461 9.59272 10.1924 8.38488 10.1925 6.90039C10.1925 5.41595 8.98464 4.20807 7.50012 4.20801Z" fill="white" stroke="white" stroke-width="0.2"/>
<path d="M11.1397 2.08301C10.5605 2.08301 10.0894 2.55422 10.0894 3.13334C10.0894 3.71257 10.5605 4.18378 11.1397 4.18378C11.7189 4.18378 12.1901 3.71257 12.1901 3.13334C12.1901 2.55412 11.7189 2.08301 11.1397 2.08301ZM11.1397 3.42157C10.9808 3.42157 10.8515 3.29223 10.8515 3.13334C10.8515 2.97436 10.9808 2.84512 11.1397 2.84512C11.2987 2.84512 11.428 2.97436 11.428 3.13334C11.428 3.29223 11.2987 3.42157 11.1397 3.42157Z" fill="white"/>
</svg>
