<svg width="13" height="13" viewBox="0 0 13 13" fill="none" xmlns="http://www.w3.org/2000/svg">
<g clip-path="url(#clip0_564_486)">
<path d="M12.9966 13.0004V12.9999H12.9998V8.23215C12.9998 5.89974 12.4977 4.10303 9.77094 4.10303C8.46011 4.10303 7.58044 4.82236 7.22131 5.50432H7.1834V4.32078H4.59802V12.9999H7.29011V8.70232C7.29011 7.57078 7.50461 6.47661 8.9059 6.47661C10.2866 6.47661 10.3072 7.76795 10.3072 8.7749V13.0004H12.9966Z" fill="white"/>
<path d="M0.214478 4.3208H2.90981V12.9999H0.214478V4.3208Z" fill="white"/>
<path d="M1.56108 0C0.699292 0 0 0.699292 0 1.56108C0 2.42288 0.699292 3.13679 1.56108 3.13679C2.42288 3.13679 3.12217 2.42288 3.12217 1.56108C3.12163 0.699292 2.42233 0 1.56108 0V0Z" fill="white"/>
</g>
<defs>
<clipPath id="clip0_564_486">
<rect width="13" height="13" fill="white"/>
</clipPath>
</defs>
</svg>
