<svg width="169" height="169" viewBox="0 0 169 169" fill="none" xmlns="http://www.w3.org/2000/svg">
<path d="M126.266 126.266C149.511 103.021 149.511 65.3335 126.266 42.0885C103.021 18.8436 65.3337 18.8436 42.0887 42.0885C18.8438 65.3335 18.8438 103.021 42.0887 126.266C65.3337 149.511 103.021 149.511 126.266 126.266Z" fill="#E4F4F3"/>
<path d="M79.734 100.756C76.425 99.5326 72.803 101.02 69.288 101.32C66.234 101.58 63.106 100.901 60.434 99.3976C63.44 94.9136 64.688 89.2836 63.858 83.9496C62.89 84.8236 61.373 85.0266 60.21 84.4366C60.286 84.4756 61.371 79.4786 61.427 79.0116C61.658 77.0806 61.665 75.1456 61.505 73.2096C61.214 69.7016 60.565 65.7886 61.391 62.3016C62.098 59.3216 64.124 56.4836 67.058 55.6066C68.901 55.0556 70.876 55.3166 72.781 55.5816C73.37 52.9876 75.217 50.8036 77.445 49.3506C80.119 47.6066 83.823 46.2316 87.037 46.4386C92.196 46.7706 97.038 49.4876 100.512 53.3156C103.986 57.1436 106.174 62.0106 107.397 67.0336C107.905 69.1196 108.257 71.2656 108.117 73.4076C107.794 78.3516 104.879 83.1106 105.798 87.9786C105.853 88.2696 105.917 88.5926 105.764 88.8466C105.303 89.6116 104.163 88.5796 103.277 88.6926C103.707 93.3156 104.828 97.5366 107.239 101.505C102.855 99.7966 97.975 100.002 93.3 100.534C88.625 101.063 84.147 102.388 79.734 100.756Z" fill="#383838"/>
<path d="M121.547 120.962C119.472 113.583 113.719 107.808 106.348 105.705L92.7508 101.825H84.1788H75.6068L62.0098 105.705C54.6388 107.808 48.8858 113.583 46.8108 120.962L43.0698 127.201C53.7558 137.415 68.2288 143.701 84.1798 143.701C100.13 143.701 114.603 137.415 125.289 127.201L121.547 120.962Z" fill="#383838"/>
<path d="M92.1886 90.8838H84.1776H76.1666L73.6416 104.101C73.6416 104.101 78.1616 108.839 84.1766 109.089C90.1916 108.84 94.7116 104.101 94.7116 104.101L92.1886 90.8838Z" fill="#F0F2F2"/>
<path d="M102.099 72.3386C102.099 83.1716 94.0758 97.6796 84.1778 97.6796C74.2808 97.6796 66.2568 83.1716 66.2568 72.3386C66.2568 61.5056 74.2798 52.7236 84.1778 52.7236C94.0758 52.7226 102.099 61.5056 102.099 72.3386Z" fill="white"/>
<path d="M68.5267 73.8515C68.4417 75.9685 67.1817 78.7575 65.7687 78.7005C64.3557 78.6435 63.3247 75.7625 63.4097 73.6455C63.4947 71.5285 64.7097 69.8585 66.1227 69.9155C67.5357 69.9715 68.6127 71.7345 68.5267 73.8515Z" fill="white"/>
<path d="M104.617 73.6626C104.689 75.7806 103.639 78.6546 102.226 78.7026C100.813 78.7506 99.571 75.9536 99.499 73.8356C99.427 71.7176 100.515 69.9626 101.928 69.9146C103.341 69.8666 104.545 71.5446 104.617 73.6626Z" fill="white"/>
<path d="M87.3757 62.8926C82.9777 62.1406 78.1247 61.2116 75.4147 57.6676C75.9057 58.3096 72.5297 62.6266 72.1037 63.2556C70.7577 65.2486 69.5767 67.1506 69.3767 69.6246C69.1927 71.9096 69.7767 74.2156 69.4997 76.4916C69.1817 79.1146 67.7327 81.6716 68.2827 84.2556C66.4827 81.6376 67.5917 77.9616 66.4087 75.0126C66.1877 74.4626 65.8877 73.9406 65.7347 73.3676C65.0847 70.9326 66.5917 66.6096 67.5037 64.3346C68.7467 61.2326 70.7177 58.4126 73.2897 56.2686C77.7557 52.5446 84.0077 50.9746 89.6447 52.4036C95.2817 53.8316 100.105 58.3156 101.695 63.9096C102.976 68.4126 101.76 72.0736 101.326 76.5266C101.081 79.0376 101.778 81.5986 101.317 84.0796C101.16 84.9226 100.795 85.8276 100.013 86.1786C98.9527 84.1156 99.4107 81.6456 99.6637 79.3396C100.109 75.2846 100.08 70.0706 97.1937 66.9076C94.6187 64.0846 90.9847 63.5096 87.3757 62.8926Z" fill="#383838"/>
</svg>
