<svg width="170" height="169" viewBox="0 0 170 169" fill="none" xmlns="http://www.w3.org/2000/svg">
<path d="M127.131 126.267C150.376 103.022 150.376 65.3345 127.131 42.0895C103.886 18.8446 66.1989 18.8446 42.9539 42.0895C19.709 65.3345 19.709 103.022 42.9539 126.267C66.1989 149.512 103.886 149.512 127.131 126.267Z" fill="#E4F4F3"/>
<path d="M122.413 120.961C120.338 113.582 114.585 107.807 107.214 105.704L93.617 101.824H85.045H76.473L62.876 105.704C55.505 107.807 49.752 113.582 47.677 120.961L43.936 127.2C54.623 137.414 69.096 143.7 85.046 143.7C100.996 143.7 115.469 137.414 126.155 127.2L122.413 120.961Z" fill="#383838"/>
<path d="M93.0558 90.8833H85.0448H77.0338L74.5088 104.1C74.5088 104.1 79.0288 108.838 85.0448 109.088C91.0608 108.839 95.5798 104.1 95.5798 104.1L93.0558 90.8833Z" fill="#F0F2F2"/>
<path d="M102.966 72.3381C102.966 83.1711 94.943 97.6791 85.045 97.6791C75.148 97.6791 67.124 83.1711 67.124 72.3381C67.124 61.5051 75.147 52.7231 85.045 52.7231C94.942 52.7221 102.966 61.5051 102.966 72.3381Z" fill="white"/>
<path d="M69.394 73.851C69.309 75.968 68.049 78.757 66.636 78.7C65.223 78.643 64.191 75.762 64.277 73.645C64.362 71.528 65.577 69.858 66.99 69.915C68.402 69.971 69.479 71.734 69.394 73.851Z" fill="white"/>
<path d="M105.483 73.6621C105.555 75.7801 104.505 78.6541 103.092 78.7021C101.679 78.7501 100.437 75.9531 100.365 73.8351C100.293 71.7171 101.381 69.9621 102.794 69.9141C104.208 69.8661 105.411 71.5441 105.483 73.6621Z" fill="white"/>
<path d="M106.922 61.5272C106.951 60.2722 106.527 58.9322 105.513 58.1912C105.774 58.2252 105.891 57.8192 105.728 57.6132C105.565 57.4062 105.28 57.3532 105.027 57.2832C103.419 56.8432 102.36 55.3342 100.933 54.4722C100.08 53.9562 99.0592 53.6482 98.4262 52.8782C98.2372 52.6482 98.0852 52.3512 98.1552 52.0622C98.1852 51.9402 98.2532 51.8282 98.2662 51.7032C98.3052 51.3222 97.8632 51.0962 97.4992 50.9772C95.2612 50.2462 93.0062 48.9032 90.6562 48.7612C90.4402 48.7482 90.2222 48.7452 90.0042 48.7542C87.6502 48.8442 85.9672 49.9742 85.0482 51.6312C84.1282 49.9752 82.4452 48.8452 80.0922 48.7542C79.8742 48.7462 79.6562 48.7482 79.4402 48.7612C77.0902 48.9032 74.8342 50.2462 72.5972 50.9772C72.2332 51.0962 71.7902 51.3232 71.8302 51.7032C71.8432 51.8282 71.9112 51.9402 71.9412 52.0622C72.0112 52.3512 71.8592 52.6492 71.6702 52.8782C71.0372 53.6482 70.0172 53.9572 69.1632 54.4722C67.7362 55.3342 66.6772 56.8432 65.0692 57.2832C64.8152 57.3522 64.5312 57.4062 64.3672 57.6132C64.2042 57.8202 64.3212 58.2252 64.5822 58.1912C63.5692 58.9322 63.1452 60.2722 63.1732 61.5272C63.2022 62.7822 63.6142 63.9922 63.9762 65.1942C64.3382 66.3962 64.6572 67.6502 64.4942 68.8952C64.4402 69.3052 64.3352 69.7202 64.4052 70.1282C64.4752 70.5362 64.7932 70.9432 65.2072 70.9382C65.8542 70.9312 66.4102 69.9862 66.9502 70.3422C67.1892 70.5002 67.2262 70.8312 67.2412 71.1172C67.4202 74.4062 68.0222 77.6722 69.0262 80.8082C69.7362 79.5202 69.2962 77.9402 69.1352 76.4782C68.8542 73.9422 69.8762 72.2582 70.4592 69.9462C70.9722 67.9132 70.6572 65.6072 72.5312 64.4692C73.4622 63.9032 74.0382 62.8782 74.9582 62.2942C75.8222 61.7462 76.8852 61.6492 77.8922 61.4642C79.2152 61.2202 80.0942 60.5042 81.2162 59.8522C81.5702 59.6462 84.9392 57.6132 85.0492 57.6932C87.2552 59.3102 90.5292 59.1552 92.7642 60.7632C93.5172 61.3052 94.0782 62.0872 94.8552 62.5952C96.1162 63.4192 97.9032 63.5062 98.7622 64.7432C99.3532 65.5942 99.2962 66.7222 99.5932 67.7152C100.416 70.4652 101.29 73.5182 100.963 76.4782C100.801 77.9402 100.361 79.5202 101.072 80.8082C102.076 77.6712 102.677 74.4052 102.857 71.1172C102.873 70.8312 102.909 70.5002 103.148 70.3422C103.688 69.9862 104.244 70.9322 104.89 70.9382C105.304 70.9422 105.622 70.5352 105.692 70.1282C105.762 69.7202 105.657 69.3062 105.603 68.8952C105.44 67.6502 105.759 66.3962 106.121 65.1942C106.482 63.9922 106.893 62.7822 106.922 61.5272Z" fill="#383838"/>
</svg>
