<svg width="170" height="169" viewBox="0 0 170 169" fill="none" xmlns="http://www.w3.org/2000/svg">
<path d="M126.997 126.268C150.242 103.023 150.242 65.3359 126.997 42.091C103.752 18.846 66.0641 18.846 42.8192 42.091C19.5742 65.3359 19.5742 103.023 42.8192 126.268C66.0641 149.513 103.752 149.513 126.997 126.268Z" fill="#E4F4F3"/>
<path d="M90.7383 56.3896C91.8613 56.5756 92.8243 56.4696 93.1223 55.1396C93.7233 52.4516 92.6852 49.4646 90.5482 47.7266C88.7402 46.2566 86.3423 45.7136 84.0153 45.5876C63.6403 44.4846 57.5923 65.2096 59.3433 81.6546C62.4503 110.843 43.8022 111.302 43.8022 111.302C43.8022 111.302 62.0163 128.424 81.8693 104.144C101.722 79.8636 76.8163 68.9856 81.0273 61.4066C82.3703 58.9886 84.4873 56.5536 87.3083 55.9096C88.2483 55.6946 89.5783 56.1976 90.7383 56.3896Z" fill="#383838"/>
<path d="M87.1723 56.8697C87.3633 55.7667 87.7593 54.6607 88.5203 53.5577C90.5583 50.6047 94.5142 48.8987 97.9152 50.0427C102.844 51.7007 106.039 57.7247 107.512 62.3767C109.471 68.5657 109.535 75.2517 108.854 81.6527C105.747 110.841 124.395 111.3 124.395 111.3C124.395 111.3 106.181 128.422 86.3282 104.142C79.5662 95.8717 76.1472 86.0517 81.1062 76.0557C82.6122 73.0187 84.7152 70.3457 86.3072 67.3647C88.0972 64.0147 86.5523 60.4557 87.1723 56.8697Z" fill="#383838"/>
<path d="M122.279 120.962C120.204 113.583 114.451 107.808 107.08 105.705L93.4832 101.825H84.9113H76.3393L62.7422 105.705C55.3712 107.808 49.6182 113.583 47.5432 120.962L43.8022 127.201C54.4892 137.415 68.9623 143.701 84.9123 143.701C100.862 143.701 115.335 137.415 126.021 127.201L122.279 120.962Z" fill="#383838"/>
<path d="M92.922 90.8838H84.911H76.9L74.375 104.101C74.375 104.101 78.895 108.839 84.911 109.089C90.926 108.84 95.446 104.101 95.446 104.101L92.922 90.8838Z" fill="#F0F2F2"/>
<path d="M102.832 72.3386C102.832 83.1716 94.8092 97.6796 84.9122 97.6796C75.0152 97.6796 66.9912 83.1716 66.9912 72.3386C66.9912 61.5056 75.0142 52.7236 84.9122 52.7236C94.8082 52.7226 102.832 61.5056 102.832 72.3386Z" fill="white"/>
<path d="M90.7384 56.3898C90.7384 56.3898 88.3964 71.4068 71.3434 81.3538C71.3434 81.3538 67.9754 86.0468 70.5014 90.8838C70.5014 90.8838 54.0804 71.7218 71.7644 54.2478C89.4484 36.7738 119.764 66.4578 100.185 89.6158C100.185 89.6158 95.7644 85.8948 96.1854 78.7028C96.6064 71.5108 96.5644 60.0558 90.7384 56.3898Z" fill="#383838"/>
</svg>
