<svg width="120" height="120" viewBox="0 0 120 120" fill="none" xmlns="http://www.w3.org/2000/svg">
<path d="M60.1793 119.682C93.0529 119.682 119.702 93.0324 119.702 60.1587C119.702 27.2851 93.0529 0.635742 60.1793 0.635742C27.3056 0.635742 0.65625 27.2851 0.65625 60.1587C0.65625 93.0324 27.3056 119.682 60.1793 119.682Z" fill="#E4F4F3"/>
<path d="M97.5473 96.9432C95.4723 89.5642 89.7193 83.7892 82.3483 81.6852L68.7513 77.8052H60.1793H51.6073L38.0103 81.6852C30.6393 83.7882 24.8863 89.5632 22.8113 96.9432L19.0703 103.182C29.7563 113.396 44.2293 119.682 60.1803 119.682C76.1303 119.682 90.6033 113.396 101.289 103.182L97.5473 96.9432Z" fill="#383838"/>
<path d="M68.1891 66.8652H60.1781H52.1671L49.6421 80.0822C49.6421 80.0822 54.1621 84.8203 60.1771 85.0703C66.1921 84.8203 70.7121 80.0822 70.7121 80.0822L68.1891 66.8652Z" fill="#F0F2F2"/>
<path d="M78.0993 48.3201C78.0993 59.1531 70.0763 73.6611 60.1783 73.6611C50.2813 73.6611 42.2573 59.1531 42.2573 48.3201C42.2573 37.4871 50.2803 28.7051 60.1783 28.7051C70.0763 28.7041 78.0993 37.4861 78.0993 48.3201Z" fill="white"/>
<path d="M44.5272 49.832C44.4422 51.949 43.1822 54.738 41.7692 54.681C40.3562 54.624 39.3252 51.7429 39.4102 49.6259C39.4952 47.5089 40.7102 45.8389 42.1232 45.8959C43.5362 45.9529 44.6132 47.715 44.5272 49.832Z" fill="white"/>
<path d="M80.6175 49.644C80.6895 51.761 79.6395 54.636 78.2265 54.684C76.8135 54.732 75.5715 51.935 75.4995 49.817C75.4275 47.699 76.5155 45.944 77.9285 45.896C79.3415 45.848 80.5455 47.526 80.6175 49.644Z" fill="white"/>
<path d="M46.3433 29.4579C43.2783 36.4529 55.7733 36.0819 59.2873 35.6649C60.1633 35.5609 61.1293 35.2699 61.9953 35.4209C62.9583 35.5879 63.9023 36.0909 64.9063 36.2469C67.0913 36.5849 69.3573 36.4169 71.4623 35.7369C71.9443 35.5819 72.4813 35.4029 72.9363 35.6249C73.2113 35.7599 73.4003 36.0189 73.5753 36.2699C74.4013 37.4599 75.1673 38.7199 75.5453 40.1179C76.0813 42.0969 75.8033 44.1889 75.6973 46.2359C75.6313 47.5049 75.5403 52.0019 77.1843 52.3029C77.4343 50.1729 77.6803 48.0289 77.9283 45.8939C77.9283 45.8939 79.7083 39.4569 79.0803 36.0879C78.0993 30.8249 74.2873 24.3019 59.0713 24.4639C48.4913 24.5789 46.3513 29.4399 46.3433 29.4579Z" fill="#383838"/>
<path d="M50.7125 33.1649C50.6825 33.3319 50.6005 33.4919 50.4545 33.6389C50.0885 34.0069 49.5415 34.1049 49.0575 34.2909C47.5185 34.8829 46.5725 36.4009 45.7355 37.8219C45.1985 38.7349 44.6465 39.6929 44.5795 40.7499C44.4875 42.1979 45.2935 43.4639 45.4885 44.8619C45.6415 45.9639 45.3785 46.9729 45.0755 48.0239C44.9345 48.5139 43.8655 52.7339 42.9945 52.3009L42.2515 45.8969C42.2515 45.8969 40.4715 39.4599 41.0995 36.0909C41.7065 32.8349 43.3165 28.8719 47.3675 29.9779C48.1965 30.2029 50.9375 31.9059 50.7125 33.1649Z" fill="#383838"/>
</svg>
