<svg width="120" height="120" viewBox="0 0 120 120" fill="none" xmlns="http://www.w3.org/2000/svg">
<path d="M60.045 119.682C92.9186 119.682 119.568 93.0324 119.568 60.1587C119.568 27.2851 92.9186 0.635742 60.045 0.635742C27.1713 0.635742 0.521973 27.2851 0.521973 60.1587C0.521973 93.0324 27.1713 119.682 60.045 119.682Z" fill="#E4F4F3"/>
<path d="M41.9571 55.9317C41.9571 55.9317 44.6361 66.6367 40.4741 74.7877C40.4741 74.7877 59.5841 79.2427 79.2121 74.3237C79.2121 74.3237 75.4791 65.6637 77.7721 55.5527L41.9571 55.9317Z" fill="#383838"/>
<path d="M97.413 96.9427C95.338 89.5637 89.585 83.7887 82.214 81.6847L68.617 77.8047H60.045H51.473L37.876 81.6847C30.505 83.7877 24.752 89.5627 22.677 96.9427L18.936 103.182C29.623 113.396 44.096 119.682 60.046 119.682C75.996 119.682 90.469 113.396 101.155 103.182L97.413 96.9427Z" fill="#383838"/>
<path d="M68.0558 66.8647H60.0448H52.0338L49.5088 80.0818C49.5088 80.0818 54.0288 84.8198 60.0448 85.0698C66.0608 84.8198 70.5798 80.0818 70.5798 80.0818L68.0558 66.8647Z" fill="#F0F2F2"/>
<path d="M77.966 48.3196C77.966 59.1526 69.943 73.6606 60.045 73.6606C50.148 73.6606 42.124 59.1526 42.124 48.3196C42.124 37.4866 50.147 28.7046 60.045 28.7046C69.942 28.7036 77.966 37.4856 77.966 48.3196Z" fill="white"/>
<path d="M52.0541 33.4038C52.2521 33.2688 52.2871 32.9858 52.4021 32.7778C54.7721 33.4568 56.9741 34.5988 59.3351 35.3058C79.8691 41.4578 74.9761 63.0308 75.0381 66.5028C79.2121 57.2468 81.4151 54.5148 81.5361 47.7248C81.6231 42.8468 81.0451 37.8798 79.0971 33.4058C77.1491 28.9318 73.7191 24.9778 69.2241 23.0788C63.4311 20.6308 55.1281 22.2598 52.1731 28.2658C49.6101 27.2178 46.8321 26.1518 44.1431 26.8108C41.6571 27.4198 39.7021 29.4628 38.6591 31.7998C37.6161 34.1368 37.3721 36.7488 37.3441 39.3078C37.3091 42.5668 37.6021 45.8288 38.2171 49.0298C39.3321 54.8258 43.1631 60.6198 42.6871 66.5028C48.7641 55.5528 37.7641 43.1948 52.0541 33.4038Z" fill="#383838"/>
<path d="M78.1152 53.564C78.1152 53.564 77.4342 63.612 82.4762 73.661H80.2952C80.2952 73.661 77.6342 70.301 75.9492 65.669L78.1152 53.564Z" fill="#383838"/>
</svg>
