<svg width="120" height="120" viewBox="0 0 120 120" fill="none" xmlns="http://www.w3.org/2000/svg">
<path d="M59.9112 119.682C92.7848 119.682 119.434 93.0324 119.434 60.1587C119.434 27.2851 92.7848 0.635742 59.9112 0.635742C27.0375 0.635742 0.388184 27.2851 0.388184 60.1587C0.388184 93.0324 27.0375 119.682 59.9112 119.682Z" fill="#E4F4F3"/>
<path d="M97.2793 96.9427C95.2043 89.5637 89.4513 83.7887 82.0803 81.6847L68.4832 77.8047H59.9113H51.3393L37.7422 81.6847C30.3712 83.7877 24.6182 89.5627 22.5432 96.9427L18.8022 103.182C29.4892 113.396 43.9623 119.682 59.9123 119.682C75.8623 119.682 90.3353 113.396 101.021 103.182L97.2793 96.9427Z" fill="#383838"/>
<path d="M67.922 66.8647H59.911H51.9L49.375 80.0818C49.375 80.0818 53.895 84.8198 59.911 85.0698C65.926 84.8198 70.446 80.0818 70.446 80.0818L67.922 66.8647Z" fill="#F0F2F2"/>
<path d="M77.8322 48.3196C77.8322 59.1526 69.8092 73.6606 59.9122 73.6606C50.0152 73.6606 41.9912 59.1526 41.9912 48.3196C41.9912 37.4866 50.0142 28.7046 59.9122 28.7046C69.8082 28.7036 77.8322 37.4856 77.8322 48.3196Z" fill="white"/>
<path d="M44.2601 49.8315C44.1751 51.9485 42.9151 54.7375 41.5021 54.6805C40.0891 54.6235 39.0581 51.7425 39.1431 49.6255C39.2281 47.5085 40.4431 45.8385 41.8561 45.8955C43.2691 45.9525 44.3451 47.7145 44.2601 49.8315Z" fill="white"/>
<path d="M80.3494 49.6435C80.4214 51.7605 79.3714 54.6355 77.9584 54.6835C76.5454 54.7315 75.3034 51.9345 75.2314 49.8165C75.1594 47.6985 76.2474 45.9435 77.6604 45.8955C79.0744 45.8475 80.2784 47.5255 80.3494 49.6435Z" fill="white"/>
<path d="M78.9691 45.2714C78.8471 44.5524 78.7921 43.8244 78.7341 43.0984C78.6151 41.6214 78.4371 40.1464 77.7611 38.8054C77.3121 37.9164 76.7571 37.0844 76.1321 36.3094C75.6081 35.6604 75.1831 34.8344 74.5761 34.2764C74.2021 34.4944 73.8281 34.7114 73.4541 34.9294C73.3141 35.0104 73.1711 35.0944 73.0651 35.2164C73.0341 35.2524 73.0071 35.2894 72.9831 35.3284C72.6571 35.8684 73.0621 36.6604 72.8651 37.2974C72.7161 37.7794 72.2281 38.1374 72.2011 38.6414C72.1851 38.9364 72.3351 39.2124 72.4801 39.4694C73.8341 41.8704 75.1951 44.6994 75.0811 47.5294C75.0191 49.0654 74.7191 50.3424 74.9851 51.8594C75.2431 53.3294 75.3311 54.9664 74.4541 56.2594C74.1141 56.7614 73.6491 57.1744 73.3511 57.7014C73.0011 58.3214 72.9081 59.0474 72.7311 59.7374C72.3721 61.1314 71.6371 62.4264 70.6241 63.4494C70.3961 63.6804 70.1351 63.9364 70.1371 64.2614C70.1381 64.4164 70.2011 64.5654 70.2091 64.7204C70.2221 64.9734 70.0891 65.2084 69.9541 65.4224C68.8361 67.2074 67.2211 68.7154 65.4361 69.8234C65.6601 69.5014 65.8001 69.1214 65.8391 68.7304C65.8511 68.6154 65.8541 68.4974 65.8941 68.3884C65.9741 68.1694 66.1851 68.0294 66.3291 67.8464C66.6251 67.4704 66.6221 66.9404 66.5391 66.4684C66.4561 65.9964 66.3061 65.5254 66.3581 65.0494C66.3961 65.0954 66.4341 65.1414 66.4721 65.1884C66.6901 64.7364 66.7191 64.2104 66.6331 63.7164C66.6091 63.5794 66.0981 61.9134 65.8781 62.0844C66.7361 61.4164 67.6891 60.8704 68.7001 60.4684C67.6821 60.3274 66.7461 60.1284 65.7991 59.7394C65.9341 59.6724 66.0401 59.5504 66.0891 59.4084C65.4911 59.4304 65.0721 59.1104 64.5741 58.8464C63.7691 58.4204 62.8681 58.0394 61.9371 58.1754C62.0311 58.1174 62.1251 58.0594 62.2181 58.0024C61.6411 57.7404 61.0071 58.2914 60.3741 58.2694C60.2151 58.2644 60.0621 58.2224 59.9111 58.1714C59.7601 58.2214 59.6071 58.2634 59.4481 58.2694C58.8151 58.2914 58.1811 57.7404 57.6041 58.0024C57.6981 58.0604 57.7921 58.1184 57.8851 58.1754C56.9541 58.0384 56.0531 58.4194 55.2481 58.8464C54.7501 59.1104 54.3311 59.4304 53.7331 59.4084C53.7821 59.5514 53.8881 59.6724 54.0231 59.7394C53.0761 60.1284 52.1401 60.3274 51.1221 60.4684C52.1331 60.8704 53.0861 61.4164 53.9441 62.0844C53.7251 61.9134 53.2131 63.5794 53.1891 63.7164C53.1031 64.2104 53.1331 64.7364 53.3501 65.1884C53.3881 65.1424 53.4261 65.0964 53.4641 65.0494C53.5161 65.5254 53.3661 65.9974 53.2831 66.4684C53.2001 66.9404 53.1971 67.4694 53.4931 67.8464C53.6381 68.0294 53.8481 68.1694 53.9281 68.3884C53.9681 68.4974 53.9711 68.6154 53.9831 68.7304C54.0221 69.1214 54.1621 69.5014 54.3861 69.8234C52.6011 68.7154 50.9861 67.2074 49.8681 65.4224C49.7331 65.2084 49.6001 64.9734 49.6131 64.7204C49.6211 64.5654 49.6841 64.4164 49.6851 64.2614C49.6861 63.9364 49.4261 63.6804 49.1981 63.4494C48.1851 62.4264 47.4501 61.1314 47.0911 59.7374C46.9131 59.0484 46.8211 58.3214 46.4711 57.7014C46.1731 57.1734 45.7081 56.7604 45.3681 56.2594C44.4911 54.9654 44.5801 53.3294 44.8371 51.8594C45.1031 50.3424 44.8031 49.0654 44.7411 47.5294C44.6271 44.6984 45.9881 41.8704 47.3421 39.4694C47.4871 39.2124 47.6371 38.9364 47.6211 38.6414C47.5941 38.1374 47.1061 37.7804 46.9571 37.2974C46.7611 36.6604 47.1651 35.8684 46.8391 35.3284C46.8161 35.2894 46.7891 35.2524 46.7571 35.2164C46.6501 35.0944 46.5081 35.0104 46.3681 34.9294C45.9941 34.7114 45.6201 34.4944 45.2461 34.2764C44.6381 34.8344 44.2131 35.6614 43.6901 36.3094C43.0651 37.0834 42.5101 37.9164 42.0611 38.8054C41.3841 40.1464 41.2071 41.6214 41.0881 43.0984C41.0291 43.8244 40.9741 44.5524 40.8531 45.2714C40.8311 45.4044 40.5971 46.2094 40.7301 46.2424C40.7741 46.2534 40.9081 46.1564 40.9521 46.1374C41.0391 46.0994 41.1281 46.0664 41.2191 46.0384C41.3931 45.9854 41.5731 45.9514 41.7551 45.9384C41.9181 45.9264 42.0911 45.9344 42.2281 46.0214C42.3881 46.1234 42.5021 46.3384 42.5811 46.5054C42.6741 46.7024 42.7151 46.9294 42.7371 47.1454C42.7811 47.5934 42.7251 48.0444 42.6831 48.4904C42.4991 50.4214 42.6661 52.3714 42.9291 54.2874C43.0131 54.9004 43.3771 55.5874 43.3521 56.1784C43.3201 56.9064 42.5741 57.4364 42.6791 58.2164C42.7441 58.7014 43.1441 59.1144 43.1221 59.6024C43.1051 59.9794 42.8361 60.3414 42.9381 60.7044C43.0061 60.9454 43.2201 61.1104 43.3881 61.2954C43.9701 61.9354 44.0431 62.8734 44.3611 63.6784C44.8831 65.0014 46.0541 65.9344 47.0301 66.9684C48.0061 68.0034 48.8631 69.3934 48.5191 70.7744C49.9401 71.2024 51.2921 71.8594 52.5071 72.7104C53.0111 73.0634 53.5001 73.4544 54.0731 73.6784C54.6021 73.8844 55.1761 73.9384 55.7411 73.9904C56.7191 74.0794 57.6981 74.1694 58.6761 74.2584C58.6621 74.3214 58.6551 74.3844 58.6381 74.4464C58.9891 74.4144 59.3391 74.3824 59.6901 74.3504C59.7651 74.3574 59.8391 74.3644 59.9141 74.3704C59.9891 74.3634 60.0631 74.3564 60.1381 74.3504C60.4891 74.3824 60.8391 74.4144 61.1901 74.4464C61.1731 74.3844 61.1661 74.3204 61.1521 74.2584C62.1301 74.1694 63.1091 74.0804 64.0871 73.9904C64.6521 73.9394 65.2261 73.8854 65.7551 73.6784C66.3281 73.4544 66.8171 73.0634 67.3211 72.7104C68.5361 71.8584 69.8881 71.2024 71.3091 70.7744C70.9651 69.3944 71.8221 68.0034 72.7981 66.9684C73.7741 65.9334 74.9441 65.0014 75.4671 63.6784C75.7851 62.8734 75.8581 61.9354 76.4401 61.2954C76.6081 61.1104 76.8221 60.9454 76.8901 60.7044C76.9921 60.3414 76.7231 59.9794 76.7061 59.6024C76.6841 59.1134 77.0841 58.7004 77.1491 58.2164C77.2541 57.4354 76.5081 56.9064 76.4761 56.1784C76.4501 55.5874 76.8141 54.9004 76.8991 54.2874C77.1621 52.3714 77.3291 50.4224 77.1451 48.4904C77.1031 48.0444 77.0471 47.5934 77.0911 47.1454C77.1121 46.9304 77.1541 46.7034 77.2471 46.5054C77.3261 46.3384 77.4391 46.1234 77.6001 46.0214C77.7371 45.9344 77.9101 45.9264 78.0731 45.9384C78.2551 45.9514 78.4351 45.9854 78.6091 46.0384C78.7001 46.0664 78.7891 46.0994 78.8761 46.1374C78.9201 46.1564 79.0541 46.2534 79.0981 46.2424C79.2251 46.2084 78.9911 45.4044 78.9691 45.2714ZM64.5611 66.7784C64.6111 66.6934 64.6871 66.6244 64.7761 66.5834C64.9251 66.8584 64.6121 67.1614 64.5921 67.4734C64.5781 67.6974 64.7171 67.8974 64.7861 68.1114C64.9021 68.4704 64.8141 68.8714 64.6271 69.1974C64.4101 69.5754 64.1151 69.8074 63.7701 70.0464C63.4301 70.2814 63.1371 70.5794 62.7901 70.8104C62.0531 71.3024 61.2411 71.6714 60.4331 72.0274C60.3401 72.0684 60.2381 72.1054 60.1361 72.1384C60.0591 72.1134 59.9851 72.0844 59.9121 72.0554C59.8391 72.0844 59.7661 72.1134 59.6881 72.1384C59.5861 72.1054 59.4841 72.0684 59.3911 72.0274C58.5821 71.6714 57.7701 71.3034 57.0341 70.8104C56.6871 70.5784 56.3941 70.2814 56.0541 70.0464C55.7091 69.8074 55.4141 69.5754 55.1971 69.1974C55.0091 68.8704 54.9211 68.4694 55.0381 68.1114C55.1071 67.8984 55.2461 67.6974 55.2321 67.4734C55.2121 67.1614 54.8991 66.8584 55.0481 66.5834C55.1371 66.6244 55.2131 66.6934 55.2631 66.7784C55.4391 66.3334 55.3011 65.8304 55.1401 65.3794C54.9791 64.9284 54.7921 64.4564 54.8781 63.9854C54.9751 64.0534 55.0711 64.1204 55.1671 64.1884C55.3071 63.8654 55.2171 63.4904 55.0911 63.1614C55.0451 63.0414 54.9941 62.9204 54.9901 62.7914C54.9831 62.5854 55.1021 62.3904 55.2581 62.2564C55.8221 61.7724 56.5561 61.5854 57.2281 61.2674C57.9701 60.9174 58.6811 60.5024 59.3511 60.0294C59.4661 59.9474 59.5801 59.8584 59.6881 59.7654C59.7601 59.8274 59.8361 59.8834 59.9121 59.9404C59.9871 59.8834 60.0631 59.8274 60.1361 59.7654C60.2451 59.8584 60.3581 59.9474 60.4731 60.0294C61.1431 60.5024 61.8541 60.9174 62.5961 61.2674C63.2691 61.5844 64.0021 61.7724 64.5661 62.2564C64.7221 62.3904 64.8411 62.5854 64.8341 62.7914C64.8301 62.9194 64.7791 63.0414 64.7331 63.1614C64.6071 63.4904 64.5161 63.8654 64.6571 64.1884C64.7531 64.1204 64.8501 64.0534 64.9471 63.9854C65.0321 64.4564 64.8461 64.9284 64.6851 65.3794C64.5231 65.8314 64.3851 66.3334 64.5611 66.7784Z" fill="#383838"/>
</svg>
