<svg width="120" height="120" viewBox="0 0 120 120" fill="none" xmlns="http://www.w3.org/2000/svg">
<path d="M60.1793 119.663C93.0529 119.663 119.702 93.0133 119.702 60.1397C119.702 27.266 93.0529 0.616699 60.1793 0.616699C27.3056 0.616699 0.65625 27.266 0.65625 60.1397C0.65625 93.0133 27.3056 119.663 60.1793 119.663Z" fill="#E4F4F3"/>
<path d="M97.5473 96.9236C95.4723 89.5446 89.7193 83.7696 82.3483 81.6666L68.7513 77.7866H60.1793H51.6073L38.0103 81.6666C30.6393 83.7696 24.8863 89.5446 22.8113 96.9236L19.0703 103.163C29.7563 113.377 44.2293 119.663 60.1803 119.663C76.1303 119.663 90.6033 113.377 101.289 103.163L97.5473 96.9236Z" fill="#383838"/>
<path d="M68.1891 66.8457H60.1781H52.1671L49.6421 80.0627C49.6421 80.0627 54.1621 84.8007 60.1771 85.0507C66.1921 84.8017 70.7121 80.0627 70.7121 80.0627L68.1891 66.8457Z" fill="#F0F2F2"/>
<path d="M78.0993 48.3005C78.0993 59.1335 70.0763 73.6415 60.1783 73.6415C50.2813 73.6415 42.2573 59.1335 42.2573 48.3005C42.2573 37.4675 50.2803 28.6855 60.1783 28.6855C70.0763 28.6845 78.0993 37.4675 78.0993 48.3005Z" fill="white"/>
<path d="M44.5272 49.8134C44.4422 51.9304 43.1822 54.7194 41.7692 54.6624C40.3562 54.6054 39.3252 51.7244 39.4102 49.6074C39.4952 47.4904 40.7102 45.8204 42.1232 45.8774C43.5362 45.9334 44.6132 47.6954 44.5272 49.8134Z" fill="white"/>
<path d="M80.6175 49.6245C80.6895 51.7415 79.6395 54.6165 78.2265 54.6645C76.8135 54.7125 75.5715 51.9155 75.4995 49.7975C75.4275 47.6795 76.5155 45.9245 77.9285 45.8765C79.3415 45.8285 80.5455 47.5065 80.6175 49.6245Z" fill="white"/>
<path d="M63.7113 41.4576C67.8423 43.2596 69.6343 44.9226 74.1343 45.1806C77.7003 53.2636 75.4703 62.9485 69.3693 69.3375C73.9293 71.4715 80.3243 70.5245 83.4363 66.5665C90.1823 57.9855 85.4263 43.0526 80.2753 34.8326C75.9493 27.9286 68.9463 22.4886 60.9143 21.1246C58.9183 20.7856 56.7573 20.7225 54.9873 21.7045C52.7843 22.9265 51.6633 25.5556 51.5713 28.0736C51.3273 34.7286 57.6273 38.8036 63.7113 41.4576Z" fill="#383838"/>
<path d="M57.2385 33.4046C57.2385 33.4046 50.2215 36.2376 46.5545 40.7726C39.4115 49.6066 44.5335 61.9826 48.7905 66.8446C48.7905 66.8446 38.2705 75.3096 33.0825 62.8636C25.3445 44.2996 43.1865 22.0356 55.6595 27.0886C70.8965 33.2616 57.2385 33.4046 57.2385 33.4046Z" fill="#383838"/>
</svg>
