<svg width="170" height="170" viewBox="0 0 170 170" fill="none" xmlns="http://www.w3.org/2000/svg">
<path d="M127.129 127.227C150.374 103.982 150.374 66.2944 127.129 43.0495C103.884 19.8045 66.1969 19.8045 42.952 43.0495C19.707 66.2944 19.707 103.982 42.952 127.227C66.1969 150.472 103.884 150.472 127.129 127.227Z" fill="#E4F4F3"/>
<path d="M122.413 121.924C120.338 114.545 114.585 108.77 107.214 106.667L93.617 102.787H85.045H76.473L62.876 106.667C55.505 108.77 49.752 114.545 47.677 121.924L43.936 128.163C54.623 138.377 69.096 144.663 85.046 144.663C100.996 144.663 115.469 138.377 126.155 128.163L122.413 121.924Z" fill="#383838"/>
<path d="M93.0558 91.8457H85.0448H77.0338L74.5088 105.063C74.5088 105.063 79.0288 109.801 85.0448 110.051C91.0608 109.802 95.5798 105.063 95.5798 105.063L93.0558 91.8457Z" fill="#F0F2F2"/>
<path d="M102.966 73.3005C102.966 84.1335 94.943 98.6415 85.045 98.6415C75.148 98.6415 67.124 84.1335 67.124 73.3005C67.124 62.4675 75.147 53.6855 85.045 53.6855C94.942 53.6845 102.966 62.4675 102.966 73.3005Z" fill="white"/>
<path d="M69.394 74.8134C69.309 76.9304 68.049 79.7194 66.636 79.6624C65.223 79.6054 64.191 76.7244 64.277 74.6074C64.362 72.4904 65.577 70.8204 66.99 70.8774C68.402 70.9334 69.479 72.6954 69.394 74.8134Z" fill="white"/>
<path d="M105.483 74.6245C105.555 76.7415 104.505 79.6165 103.092 79.6645C101.679 79.7125 100.437 76.9155 100.365 74.7975C100.293 72.6795 101.381 70.9245 102.794 70.8765C104.208 70.8285 105.411 72.5065 105.483 74.6245Z" fill="white"/>
<path d="M96.8332 93.9334C96.3302 93.6574 96.0432 93.1464 95.9462 92.4824C95.7472 91.1204 95.3772 89.8284 94.5632 88.6804C93.9162 87.7684 93.0522 87.0364 92.1982 86.3154C93.3152 86.3344 94.4262 85.7774 95.0802 84.8724C94.2202 84.8894 93.4352 84.4304 92.6362 84.1124C91.7282 83.7504 90.5702 83.5774 89.5932 83.6314C88.5782 83.6874 87.6872 83.6454 86.8012 83.0684C86.5932 82.9334 86.3672 82.7694 86.1232 82.8114C85.9052 82.8484 85.7462 83.0394 85.5372 83.1134C85.1902 83.2364 84.8272 83.0114 84.4652 82.9434C83.9852 82.8524 83.5232 83.0444 83.0862 83.2214C82.5982 83.4194 82.1402 83.5554 81.6162 83.6014C80.4212 83.7074 79.2092 83.6584 78.0732 84.1114C77.2742 84.4304 76.4892 84.8894 75.6292 84.8714C76.2832 85.7764 77.3942 86.3334 78.5112 86.3144C77.6572 87.0354 76.7932 87.7674 76.1462 88.6794C74.8812 90.4634 75.4702 92.8114 73.4062 94.0834C73.2612 94.1724 73.1002 94.2644 73.0352 94.4224C72.9412 94.6534 73.0972 94.9074 73.2672 95.0904C73.9242 95.7964 74.9132 96.1804 75.8742 96.1004C76.3522 96.0614 76.9022 95.9354 77.2582 96.2564C77.4352 96.4154 77.5182 96.6524 77.6542 96.8484C77.9352 97.2494 78.4252 97.4504 78.7512 97.8144C79.5342 98.6894 79.2452 100.32 80.2622 100.907C80.1222 100.554 80.5172 100.164 80.8972 100.194C81.2762 100.224 81.5762 100.537 81.7502 100.875C81.9242 101.213 82.0102 101.591 82.1832 101.93C82.5152 102.579 83.1312 103.023 83.6582 103.527C84.2492 104.094 84.7452 104.761 85.1172 105.491C85.8992 104.523 86.8162 103.663 87.8322 102.944C88.0802 102.769 88.3412 102.594 88.5032 102.338C88.6762 102.064 88.7162 101.727 88.8642 101.439C89.1302 100.92 89.7682 100.623 90.3362 100.751C90.2672 100.294 90.2552 99.7914 90.5162 99.4094C90.7772 99.0274 91.4032 98.8794 91.7012 99.2334C91.4432 98.9274 92.4242 97.4784 92.5982 97.2104C93.0882 96.4574 93.6601 96.0884 94.5691 95.9194C95.3701 95.7704 96.2132 95.7614 96.9512 95.4174C97.3982 95.2094 97.7892 94.8804 98.0722 94.4764C98.1262 94.3994 98.1752 94.2914 98.1172 94.2174C98.0712 94.1594 97.9852 94.1594 97.9112 94.1614C97.4782 94.1714 97.1212 94.0904 96.8332 93.9334Z" fill="#383838"/>
<path d="M83.339 88.1376C82.349 88.3226 81.32 88.3216 80.332 88.1416C80.234 88.1236 80.123 88.1066 80.043 88.1666C79.991 88.2056 79.963 88.2686 79.94 88.3296C79.42 89.6636 79.413 91.1906 79.921 92.5286C79.961 92.6326 80.047 92.7576 80.152 92.7216C80.199 92.7056 80.229 92.6606 80.256 92.6186C80.364 92.4466 80.471 92.2736 80.59 92.1106C80.697 92.8296 80.753 93.1796 81.31 93.6816C81.936 94.2466 82.759 94.5866 83.601 94.3056C83.891 95.0696 84.871 95.2146 85.675 95.2366C86.064 95.2476 86.455 95.2696 86.802 95.0816C87.136 94.9006 87.323 94.4756 87.708 94.3756C87.846 94.3396 87.991 94.3596 88.134 94.3636C89.166 94.3936 90.128 93.4626 90.13 92.4296C90.272 92.6426 90.414 92.8556 90.556 93.0686C90.958 92.9676 91.199 92.5606 91.353 92.1756C91.844 90.9466 91.897 89.5486 91.501 88.2866C90.27 88.6706 88.98 88.1496 87.78 87.9046C86.947 87.7346 86.348 87.2656 85.693 86.7676C84.997 87.2646 84.814 87.7696 83.916 88.0076C83.725 88.0586 83.533 88.1016 83.339 88.1376Z" fill="white"/>
<path d="M79.4552 45.4253C81.5602 41.9523 85.4412 39.3383 89.4892 39.6653C90.5812 39.7533 91.6912 40.0673 92.5242 40.7783C93.7932 41.8613 94.1942 43.6324 94.4272 45.2844C94.6602 46.9364 94.8312 48.6893 95.8202 50.0323C97.0172 51.6573 99.2552 52.4403 100.032 54.3033C100.57 55.5923 100.26 57.0923 100.669 58.4283C101.095 59.8203 102.234 60.8543 103.036 62.0683C104.392 64.1223 104.756 66.8003 103.997 69.1413C103.554 70.5063 102.762 71.7373 102.317 73.1013C101.52 75.5433 101.894 78.2103 101.428 80.7363C101.375 81.0223 101.304 81.3214 101.105 81.5344C100.906 81.7464 100.539 81.8283 100.325 81.6313C100.142 81.4633 100.141 81.1803 100.153 80.9323C100.25 78.9763 100.347 77.0203 100.444 75.0633C100.476 74.4153 100.509 73.7624 100.673 73.1344C100.812 72.5984 101.047 72.0803 101.071 71.5273C101.099 70.8883 100.842 70.2733 100.558 69.7003C99.7032 67.9783 98.5492 66.4054 97.1632 65.0734C96.9832 64.9004 96.7932 64.7213 96.7162 64.4843C96.5412 63.9453 97.0072 63.4333 97.1932 62.8983C97.5712 61.8133 96.7582 60.6873 95.8992 59.9243C94.0262 58.2603 91.6582 57.1623 89.1792 56.8053C85.6872 56.3033 81.9652 57.2233 78.6942 55.9033C78.3412 55.7613 77.9762 55.5733 77.7922 55.2403C77.6492 54.9813 77.6382 54.6733 77.6302 54.3783C77.5472 51.2533 77.7942 48.1673 79.4552 45.4253Z" fill="#383838"/>
<path d="M74.9782 51.6135C73.4972 51.3355 71.9083 51.6955 70.6903 52.5835C70.3113 52.8595 69.9662 53.1865 69.6972 53.5705C68.4482 55.3495 69.0863 57.7985 68.6103 59.9195C68.0533 62.4015 65.9642 64.4005 65.7262 66.9335C65.5112 69.2215 66.8572 71.3515 67.2102 73.6215C67.3692 74.6445 67.3252 75.6875 67.4242 76.7175C67.5782 78.3175 68.0823 79.8825 68.8933 81.2705C69.0933 81.6135 69.5612 81.9745 69.8202 81.6745C69.9582 81.5145 69.9093 81.2735 69.8603 81.0685C69.6123 80.0385 69.5412 78.9655 69.6502 77.9115C69.7462 76.9815 69.9813 76.0395 69.7913 75.1235C69.5643 74.0275 68.2173 72.6795 68.3523 71.6135C68.4013 71.2235 68.5822 70.8645 68.7152 70.4955C69.1632 69.2525 69.0782 67.8685 69.5062 66.6195C69.7032 66.0465 70.0452 65.4735 70.6052 65.2415C70.8182 65.1525 71.0522 65.1195 71.2622 65.0215C72.5782 64.4105 72.2333 62.2785 72.7033 61.1765C72.8773 60.7705 73.1672 60.4265 73.4612 60.0965C74.0902 59.3905 74.7712 58.7055 75.6092 58.2685C76.0542 58.0365 76.5362 57.8785 76.9592 57.6095C77.9322 56.9895 79.2193 54.7875 78.7183 53.5735C78.2983 52.5585 75.9752 51.8005 74.9782 51.6135Z" fill="#383838"/>
</svg>
