<svg width="170" height="170" viewBox="0 0 170 170" fill="none" xmlns="http://www.w3.org/2000/svg">
<path d="M126.995 127.228C150.24 103.983 150.24 66.2959 126.995 43.0509C103.75 19.806 66.0622 19.806 42.8172 43.0509C19.5723 66.2959 19.5723 103.983 42.8172 127.228C66.0622 150.473 103.75 150.473 126.995 127.228Z" fill="#E4F4F3"/>
<path d="M64.94 74.3521C64.94 74.3521 67.764 83.5641 62.29 93.4581C62.29 93.4581 73.448 97.8791 83.974 93.4581L64.94 74.3521Z" fill="#383838"/>
<path d="M105.505 74.3521C105.505 74.3521 102.681 83.5641 108.155 93.4581C108.155 93.4581 96.9972 97.8791 86.4712 93.4581L105.505 74.3521Z" fill="#383838"/>
<path d="M122.279 121.924C120.204 114.545 114.451 108.77 107.08 106.667L93.4832 102.787H84.9113H76.3393L62.7422 106.667C55.3712 108.77 49.6182 114.545 47.5432 121.924L43.8022 128.163C54.4892 138.377 68.9623 144.663 84.9123 144.663C100.862 144.663 115.335 138.377 126.021 128.163L122.279 121.924Z" fill="#383838"/>
<path d="M92.922 91.8462H84.911H76.9L74.375 105.063C74.375 105.063 78.895 109.801 84.911 110.051C90.926 109.802 95.446 105.063 95.446 105.063L92.922 91.8462Z" fill="#F0F2F2"/>
<path d="M102.832 73.301C102.832 84.134 94.8092 98.642 84.9122 98.642C75.0152 98.642 66.9912 84.134 66.9912 73.301C66.9912 62.468 75.0142 53.686 84.9122 53.686C94.8082 53.685 102.832 62.468 102.832 73.301Z" fill="white"/>
<path d="M94.1823 56.5109C94.1823 56.5109 69.4483 53.6859 68.3733 81.7439C68.3733 81.7439 61.6583 72.9319 65.1323 62.1949C68.6063 51.4579 79.3393 44.6689 88.0323 47.0109C97.6553 49.6039 94.1823 56.5109 94.1823 56.5109Z" fill="#383838"/>
<path d="M89.4484 54.6161L94.1824 56.5111C94.1824 56.5111 93.0264 71.7201 102.152 82.3821C102.152 82.3821 116.816 64.2121 95.4474 53.6861C81.8714 46.9981 89.4484 54.6161 89.4484 54.6161Z" fill="#383838"/>
</svg>
