<svg width="238" height="220" viewBox="0 0 238 220" fill="none" xmlns="http://www.w3.org/2000/svg">
<path d="M119 188.126C169.971 188.126 211.292 185.896 211.292 183.146C211.292 180.395 169.971 178.165 119 178.165C68.0286 178.165 26.7083 180.395 26.7083 183.146C26.7083 185.896 68.0286 188.126 119 188.126Z" fill="#F5F5F5"/>
<path d="M92.0538 52.6459C88.3457 55.4707 84.7234 60.0247 86.8464 64.9659C88.9693 69.9071 102.554 70.4043 105.41 68.3715C109.123 65.7315 105.843 53.9747 102.949 53.9043C102.73 49.5439 95.1525 50.2831 92.0538 52.6459Z" fill="#263238"/>
<path d="M86.8605 100.232C86.8605 100.232 88.3504 125.285 89.9926 138.851C90.1592 151.589 93.3246 180.365 93.3246 180.365H96.8041C97.3896 166.087 101.688 152.755 98.8319 140.162C105.496 115.434 100.931 100.249 100.931 100.249L86.8605 100.232Z" fill="#FFB573"/>
<path d="M90.6494 100.25C90.6494 100.25 97.8132 128.04 99.7743 139.876C101.84 152.31 104.915 176.44 104.772 180.356H107.776C107.776 180.356 112.822 155.945 108.152 140.316C112.003 105.116 102.502 100.276 102.502 100.276L90.6494 100.25Z" fill="#FFB573"/>
<path d="M73.4707 68.1077C73.247 66.6072 70.2672 66.4796 70.2672 66.4796L68.8392 65.8152C68.5886 65.6734 68.2881 65.6271 68.0012 65.6862C67.7143 65.7453 67.4635 65.9052 67.3018 66.1321L66.8258 66.8625C66.6871 67.1499 66.6642 67.4737 66.761 67.7755C66.8579 68.0772 67.0683 68.337 67.3541 68.5081L67.7873 68.7985C68.5242 69.2853 69.3961 69.5677 70.3006 69.6125L71.6191 69.6785C71.9086 69.6939 72.1988 69.6611 72.4759 69.5817C72.8039 69.4863 73.0837 69.2847 73.2639 69.0139C73.444 68.7431 73.5124 68.4213 73.4564 68.1077H73.4707Z" fill="#FFB573"/>
<path d="M89.1644 76.8856C88.9836 77.0572 88.8884 77.1408 88.7551 77.2508L88.379 77.5588C88.1315 77.7524 87.8745 77.9328 87.6222 78.1132C87.1081 78.4652 86.5845 78.7908 86.0466 79.0988C84.9672 79.6993 83.8332 80.2116 82.6575 80.63C80.3159 81.472 77.8299 81.9191 75.3176 81.95H75.0986C74.9839 81.9477 74.8695 81.9389 74.7559 81.9236C74.5323 81.8933 74.3134 81.8387 74.1038 81.7608C73.7509 81.6263 73.428 81.4323 73.1518 81.1888C72.7941 80.8639 72.5023 80.4824 72.2902 80.0624C71.9933 79.4674 71.7713 78.8429 71.6286 78.2012C71.3762 77.0966 71.217 75.9757 71.1526 74.8484C71.0237 72.6892 71.0714 70.5241 71.2954 68.3715C71.3219 68.131 71.4432 67.9078 71.6361 67.7445C71.8291 67.5812 72.0802 67.4892 72.3418 67.4859C72.6034 67.4827 72.8571 67.5684 73.0547 67.7268C73.2524 67.8853 73.3801 68.1053 73.4136 68.3452V68.3715C73.6706 70.422 73.9658 72.5032 74.3656 74.4964C74.5419 75.4617 74.7851 76.4155 75.0939 77.352C75.2168 77.735 75.3861 78.104 75.5984 78.452C75.6841 78.5796 75.7698 78.6412 75.7317 78.5972C75.6687 78.5341 75.5904 78.4859 75.5032 78.4564C75.4261 78.4239 75.3443 78.4017 75.2605 78.3904H75.132C76.1553 78.304 77.1703 78.1481 78.1688 77.924C79.1583 77.6955 80.1287 77.4014 81.0724 77.044C82.0122 76.6721 82.918 76.2307 83.7809 75.724C84.214 75.4776 84.6329 75.218 85.0375 74.9408C85.2374 74.8044 85.4278 74.6636 85.6182 74.5227L85.8943 74.3116L86.1038 74.14L86.2275 74.0388C86.6426 73.6951 87.1865 73.5149 87.7433 73.5365C88.3001 73.5582 88.8257 73.78 89.2081 74.1547C89.5905 74.5295 89.7994 75.0274 89.7904 75.5424C89.7813 76.0575 89.555 76.5489 89.1597 76.912L89.1644 76.8856Z" fill="#FFB573"/>
<path d="M91.5064 72.0016C87.7412 71.4208 83.7904 73.788 81.7436 75.7152C80.6869 78.6544 84.0712 82.2272 84.0712 82.2272C84.0712 82.2272 88.8931 79.4904 90.6305 77.6204C92.3679 75.7504 93.6769 72.336 91.5064 72.0016Z" fill="#E0E0E0"/>
<path d="M103.168 99.9151C103.168 99.9151 108.481 103.4 109.48 114.985C109.88 119.548 110.599 137.751 112.112 145.583C106.662 149.182 90.3449 148.689 87.7888 146.586C88.5123 130.746 81.9626 109.736 86.7131 100.074C94.5766 99.1803 103.168 99.9151 103.168 99.9151Z" fill="#263238"/>
<path opacity="0.2" d="M97.7802 133.14C97.8516 126.482 96.7901 117.322 93.5676 111.892C94.6672 118.668 97.7802 133.14 97.7802 133.14Z" fill="black"/>
<path d="M84.2188 77.3696C84.2188 81.1404 80.9678 83.1204 84.6472 86.0244C84.8662 89.2804 85.1232 95.1104 86.2038 100.421C87.3224 101.86 95.5 101.741 103.997 100.038C102.888 95.4844 103.297 88.066 106.205 77.9196C106.36 77.3565 106.388 76.77 106.286 76.1966C106.184 75.6233 105.955 75.0755 105.614 74.5877C105.273 74.0998 104.826 73.6824 104.302 73.3616C103.778 73.0408 103.188 72.8235 102.569 72.7232C101.869 72.6088 101.141 72.5032 100.37 72.4152C97.7122 72.0531 95.0302 71.8678 92.3442 71.8608C91.4778 71.8608 90.5782 71.9136 89.7214 71.9664C88.2329 72.0515 86.8354 72.6575 85.8132 73.6613C84.7909 74.665 84.2208 75.9911 84.2188 77.3696Z" fill="#E0E0E0"/>
<path d="M101.577 83.9165L91.6049 86.004C91.2255 86.0834 90.9875 86.4322 91.0734 86.7829L94.3021 99.9616C94.388 100.312 94.7653 100.532 95.1448 100.453L105.117 98.3655C105.496 98.286 105.734 97.9373 105.648 97.5865L102.42 84.4078C102.334 84.0571 101.956 83.8371 101.577 83.9165Z" fill="#767879"/>
<path d="M93.3295 76.7227C93.3295 76.7227 91.7158 78.5091 90.383 78.9227L90.2307 79.8027C91.916 79.6037 93.4716 78.8621 94.6242 77.7083L93.3295 76.7227Z" fill="#767879"/>
<path d="M88.9455 75.6447C88.9455 75.6447 88.8789 77.9679 89.5739 79.1031L89.055 79.8599C87.9329 78.6795 87.2959 77.1717 87.2557 75.6007L88.9455 75.6447Z" fill="#767879"/>
<path d="M100.041 64.0464C99.4033 66.3872 98.656 70.7036 100.37 72.4064C100.37 72.4064 93.9864 74.0168 89.8262 79.2968C87.9222 73.7484 92.3632 71.852 92.3632 71.852C95.2716 71.412 95.3097 69.4496 94.9099 67.5664L100.041 64.0464Z" fill="#FFB573"/>
<path opacity="0.2" d="M97.9514 65.4851L94.9146 67.5751C95.0127 68.0097 95.07 68.4514 95.0859 68.8951C96.1902 68.8247 97.761 67.8171 97.9419 66.7655C98.0254 66.3424 98.0286 65.9092 97.9514 65.4851Z" fill="black"/>
<path d="M103.002 59.8751C101.778 63.6679 101.35 65.3003 98.7749 66.7919C94.9003 69.0315 90.2069 66.7259 90.1783 62.6515C90.1783 58.9819 92.1633 53.4115 96.5758 52.8043C100.988 52.1971 104.244 56.0779 103.002 59.8751Z" fill="#FFB573"/>
<path d="M99.8033 54.3355C98.6466 57.9919 99.6367 61.8155 101.998 62.2555C105.277 61.1247 105.115 57.7587 104.278 56.2187C103.44 54.6787 100.47 52.2279 99.8033 54.3355Z" fill="#263238"/>
<path d="M101.597 60.9047C99.7744 61.4635 99.4221 62.5943 99.4221 62.5943C99.4221 62.5943 100.674 61.7759 101.874 61.9299C101.699 61.6116 101.605 61.2612 101.597 60.9047Z" fill="#263238"/>
<path d="M97.042 59.5188C96.9611 59.8312 96.7183 60.0424 96.4946 59.994C96.2709 59.9456 96.1519 59.642 96.2328 59.3296C96.3137 59.0172 96.5565 58.8016 96.7802 58.8544C97.0039 58.9072 97.1039 59.2064 97.042 59.5188Z" fill="#263238"/>
<path d="M92.8201 58.5902C92.7392 58.9026 92.4964 59.1138 92.2727 59.061C92.049 59.0082 91.93 58.7134 92.0109 58.3966C92.0918 58.0798 92.3346 57.873 92.5583 57.9258C92.782 57.9786 92.9058 58.2734 92.8201 58.5902Z" fill="#263238"/>
<path d="M92.6631 57.9655L91.8967 57.5563C91.8967 57.5563 92.168 58.2427 92.6631 57.9655Z" fill="#263238"/>
<path d="M93.6198 59.1007C93.1359 59.745 92.5558 60.3227 91.8967 60.8167C92.0415 60.9717 92.2204 61.0963 92.4216 61.1821C92.6227 61.2678 92.8414 61.3128 93.0629 61.3139L93.6198 59.1007Z" fill="#ED893E"/>
<path d="M103.026 63.6812C102.774 63.9547 102.461 64.1749 102.108 64.3267C101.756 64.4786 101.372 64.5585 100.984 64.5612C99.9888 64.5348 99.8175 63.4788 100.365 62.612C100.841 61.8288 101.964 60.9004 102.831 61.3448C103.697 61.7892 103.702 62.9684 103.026 63.6812Z" fill="#FFB573"/>
<path d="M97.837 58.1723C97.7858 58.1488 97.7465 58.1078 97.7275 58.0579C97.6512 57.8278 97.5188 57.617 97.3406 57.4415C97.1623 57.2661 96.943 57.1308 96.6994 57.0459C96.6467 57.0325 96.6019 57.0006 96.5743 56.957C96.5467 56.9135 96.5387 56.8617 96.5518 56.8127C96.5578 56.7885 96.5692 56.7658 96.5851 56.7459C96.601 56.7259 96.6213 56.7093 96.6445 56.6969C96.6677 56.6845 96.6934 56.6767 96.7201 56.6739C96.7467 56.6711 96.7737 56.6734 96.7993 56.6807C97.1108 56.7809 97.3924 56.9474 97.6215 57.1668C97.8505 57.3861 98.0205 57.6522 98.1179 57.9435C98.1275 57.9668 98.1317 57.9918 98.1304 58.0167C98.1291 58.0416 98.1221 58.066 98.11 58.0884C98.098 58.1107 98.081 58.1305 98.0602 58.1464C98.0394 58.1624 98.0153 58.1742 97.9893 58.1811C97.9392 58.196 97.8848 58.1928 97.837 58.1723Z" fill="#263238"/>
<path d="M91.2875 56.7159C91.2334 56.7176 91.1807 56.7003 91.1399 56.6675C91.1024 56.6314 91.0814 56.5833 91.0814 56.5333C91.0814 56.4833 91.1024 56.4352 91.1399 56.3991C91.3521 56.1723 91.6205 55.9962 91.9222 55.8859C92.2238 55.7756 92.5499 55.7343 92.8726 55.7655C92.9269 55.7742 92.9755 55.8019 93.0084 55.8428C93.0412 55.8838 93.0556 55.9349 93.0487 55.9855C93.0405 56.0351 93.0113 56.0796 92.9675 56.1093C92.9238 56.139 92.8691 56.1515 92.8154 56.1439C92.56 56.1204 92.3023 56.1545 92.0643 56.2434C91.8263 56.3324 91.6153 56.4733 91.4493 56.6543C91.4287 56.6748 91.4036 56.6909 91.3757 56.7015C91.3477 56.7121 91.3176 56.717 91.2875 56.7159Z" fill="#263238"/>
<path d="M96.8759 58.8982L96.1095 58.4846C96.1095 58.4846 96.3808 59.1754 96.8759 58.8982Z" fill="#263238"/>
<path d="M96.6279 90.1384L92.8199 89.4564L93.2483 93.5C93.2483 93.5 96.1043 93.3856 97.7323 92.18L97.8846 91.652C97.7085 90.7764 97.4943 90.4552 96.6279 90.1384Z" fill="#FFB573"/>
<path d="M90.5306 91.1812L90.9732 92.8928C91.038 93.1386 91.1999 93.3531 91.4273 93.494C91.6546 93.6349 91.9307 93.692 92.2013 93.654L93.2676 93.5L92.8392 89.4564L91.216 90.002C90.9654 90.0869 90.7571 90.2539 90.6308 90.4712C90.5045 90.6885 90.4688 90.9412 90.5306 91.1812Z" fill="#FFB573"/>
<path d="M105.144 75.68C106.301 77.7283 107.31 79.8449 108.166 82.016C108.595 83.1028 108.999 84.216 109.323 85.3556C109.676 86.5364 109.915 87.7438 110.037 88.9636C110.065 89.2848 110.08 89.6148 110.084 89.9492V90.068V90.2572C110.073 90.3868 110.047 90.5151 110.008 90.64C109.938 90.8825 109.829 91.1139 109.685 91.3264C109.464 91.6426 109.176 91.9137 108.837 92.1228C108.424 92.3773 107.967 92.5662 107.486 92.6816C107.121 92.7747 106.751 92.8467 106.376 92.8972C105.079 93.048 103.77 93.0937 102.464 93.0336C99.9876 92.928 97.5233 92.6544 95.0905 92.2152C94.827 92.1749 94.5896 92.0442 94.4257 91.8492C94.2618 91.6542 94.1834 91.4093 94.2063 91.1633C94.2291 90.9173 94.3514 90.6883 94.5489 90.522C94.7463 90.3556 95.0043 90.2642 95.2714 90.266C97.6514 90.2264 100.06 90.1692 102.378 90.0064C103.488 89.9353 104.59 89.7882 105.677 89.5664C105.899 89.519 106.116 89.4572 106.329 89.3816C106.434 89.3546 106.532 89.3066 106.614 89.2408C106.523 89.2908 106.448 89.3621 106.395 89.4476C106.332 89.5403 106.284 89.6411 106.253 89.7468C106.236 89.8061 106.223 89.8664 106.215 89.9272C106.212 89.9565 106.212 89.9859 106.215 90.0152C106.215 89.7908 106.172 89.5752 106.134 89.3288C105.717 87.2895 105.068 85.2969 104.196 83.3844C103.335 81.4 102.349 79.3804 101.34 77.4752V77.44C101.136 76.9795 101.126 76.4648 101.314 75.9982C101.501 75.5316 101.872 75.1474 102.352 74.9221C102.833 74.6969 103.387 74.647 103.905 74.7826C104.423 74.9181 104.867 75.2291 105.148 75.6536L105.144 75.68Z" fill="#FFB573"/>
<path d="M102.816 72.8596C105.543 73.326 106.757 75.592 108.737 80.1152C108.133 83.16 103.292 84.7616 103.292 84.7616C103.292 84.7616 100.512 80.2076 99.96 77.792C99.4078 75.3764 100.065 72.3888 102.816 72.8596Z" fill="#E0E0E0"/>
<path d="M97.0518 180.4C97.0295 180.341 96.9862 180.291 96.9291 180.259C96.8719 180.226 96.8044 180.212 96.7376 180.22L93.5103 180.176C93.1801 180.155 92.8503 180.221 92.5583 180.365C91.0809 181.218 89.4215 181.766 87.6936 181.971C87.0082 182.068 87.3176 183.137 88.936 183.154C91.6063 183.181 92.0919 182.996 94.3719 183.018C96.3187 183.04 95.3905 183.119 96.9375 183.154C97.3088 183.154 97.6135 182.939 97.5659 182.714L97.0518 180.4Z" fill="#263238"/>
<path d="M108.185 180.4C108.162 180.342 108.119 180.292 108.062 180.26C108.005 180.227 107.938 180.213 107.871 180.22L105.239 180.176C104.909 180.154 104.578 180.219 104.287 180.365C103.335 180.976 103.468 181.685 101.298 181.971C100.612 182.068 100.95 183.137 102.569 183.154C105.239 183.181 105.077 183.018 106.162 183.018C107.248 183.018 106.581 183.119 108.133 183.154C108.504 183.154 108.804 182.939 108.747 182.714L108.185 180.4Z" fill="#263238"/>
<path d="M91.573 77.4003C92.9248 77.4531 95.4048 78.4783 96.1997 79.5739C97.3231 78.4959 101.712 75.9923 101.788 72.5999C101.251 72.1225 100.574 71.8012 99.8411 71.6759C99.8411 71.6759 93.9863 74.2939 91.573 77.4003Z" fill="#FAFAFA"/>
<path d="M89.3835 77.2243C89.3835 77.2243 89.017 74.4831 92.606 71.8211C92.2442 71.5483 90.8258 71.8563 90.8258 71.8563C90.8258 71.8563 86.6322 73.5239 86.756 77.8403C87.5117 77.3267 88.4543 77.1057 89.3835 77.2243Z" fill="#FAFAFA"/>
<path d="M88.8502 78.3859C88.3314 78.6103 88.1267 80.1723 88.8502 80.5375C89.5737 80.9027 89.5023 79.4111 89.9212 78.9007C90.3401 78.3903 89.7594 77.9943 88.8502 78.3859Z" fill="#767879"/>
<path d="M89.4881 78.9931C89.1168 79.4331 89.5976 80.9291 90.3973 80.9247C91.197 80.9203 90.5068 79.6047 90.6638 78.9535C90.8209 78.3023 90.1212 78.2187 89.4881 78.9931Z" fill="#767879"/>
<path d="M89.5976 80.1062C88.7075 78.8346 88.6456 85.5358 90.8019 88.1758C90.6591 85.5754 92.168 81.8882 89.5976 80.1062Z" fill="#767879"/>
<path d="M89.5166 80.0492C89.1215 78.7556 87.1366 84.4228 88.2362 87.1904C88.8597 84.9508 91.1874 82.1876 89.5166 80.0492Z" fill="#767879"/>
<path d="M96.1522 62.5239C96.3596 62.4404 96.5587 62.3403 96.7472 62.2246C96.7578 62.2148 96.7663 62.2032 96.772 62.1903C96.7778 62.1775 96.7808 62.1637 96.7808 62.1499C96.7808 62.136 96.7778 62.1222 96.772 62.1094C96.7663 62.0965 96.7578 62.0849 96.7472 62.0751C96.7274 62.0516 96.6988 62.0359 96.6671 62.031C96.6353 62.0261 96.6028 62.0324 96.5758 62.0487C96.1513 62.3118 95.6684 62.4835 95.1626 62.5513C94.6568 62.6191 94.141 62.5811 93.6532 62.4403C93.6388 62.4344 93.6233 62.4313 93.6076 62.431C93.592 62.4307 93.5764 62.4333 93.5618 62.4386C93.5472 62.444 93.5338 62.4519 93.5226 62.462C93.5113 62.4721 93.5023 62.4841 93.4961 62.4974C93.4854 62.5249 93.4869 62.5551 93.5003 62.5815C93.5137 62.6079 93.5378 62.6283 93.5675 62.6382C94.4149 62.896 95.3353 62.8553 96.1522 62.5239Z" fill="#263238"/>
<path d="M82.3386 65.6259H58.0198V66.3563H82.3386V65.6259Z" fill="#767879"/>
<path d="M81.7579 66.3563H58.6005L59.6191 66.8667H80.7392L81.7579 66.3563Z" fill="#767879"/>
<path opacity="0.2" d="M81.7579 66.3563H58.6005L59.6191 66.8667H80.7392L81.7579 66.3563Z" fill="black"/>
<path d="M65.8119 46.0592C65.6696 46.0581 65.5336 46.0053 65.433 45.9123C65.3324 45.8193 65.2753 45.6935 65.274 45.562V43.8944C65.2753 43.7629 65.3324 43.6371 65.433 43.5441C65.5336 43.4511 65.6696 43.3984 65.8119 43.3972C65.9542 43.3984 66.0903 43.4511 66.1909 43.5441C66.2915 43.6371 66.3485 43.7629 66.3498 43.8944V45.562C66.3485 45.6935 66.2915 45.8193 66.1909 45.9123C66.0903 46.0053 65.9542 46.0581 65.8119 46.0592Z" fill="#263238"/>
<path d="M66.6783 43.7931V43.5731C66.6783 43.3593 66.4908 43.1859 66.2595 43.1859H65.3646C65.1332 43.1859 64.9457 43.3593 64.9457 43.5731V43.7931C64.9457 44.007 65.1332 44.1803 65.3646 44.1803H66.2595C66.4908 44.1803 66.6783 44.007 66.6783 43.7931Z" fill="#263238"/>
<path d="M66.6735 49.6802V44.9238C66.6735 44.8721 66.6516 44.8224 66.6125 44.7854C66.5733 44.7483 66.5201 44.727 66.4641 44.7258H65.1598C65.1039 44.727 65.0506 44.7483 65.0114 44.7854C64.9723 44.8224 64.9504 44.8721 64.9504 44.9238V49.6802C64.9506 50.0377 64.8688 50.3911 64.7104 50.7172C64.5521 51.0434 64.3208 51.3348 64.0317 51.5722C63.7437 51.8114 63.5132 52.1038 63.355 52.4304C63.1967 52.7571 63.1143 53.1107 63.113 53.4686V65.6698H68.5061V53.4686C68.5057 53.1106 68.4237 52.7567 68.2654 52.4299C68.1071 52.1032 67.8761 51.8109 67.5874 51.5722C67.2997 51.334 67.0696 51.0424 66.9122 50.7163C66.7547 50.3903 66.6734 50.0373 66.6735 49.6802Z" fill="#767879"/>
<path d="M68.506 54.912H64.9456V62.8012H68.506V54.912Z" fill="#E0E0E0"/>
<path d="M73.5611 65.6259H72.9185C73.1324 65.6391 73.3471 65.6391 73.5611 65.6259Z" fill="#767879"/>
<path d="M77.4407 65.6259H76.7933C77.0089 65.6391 77.2251 65.6391 77.4407 65.6259Z" fill="#767879"/>
<path opacity="0.2" d="M72.6996 56.3199V58.3219C72.6996 59.9147 73.6801 61.2391 74.9225 61.4019V64.9219C74.9225 65.4631 74.3513 65.6171 73.9086 65.6523H76.4457C76.003 65.6171 75.4318 65.4631 75.4318 64.9219V61.4019C76.6742 61.2435 77.6547 59.9191 77.6547 58.3219V56.3199H72.6996Z" fill="#767879"/>
<path d="M102.193 54.4368C100.289 55.1848 93.9103 55.4136 91.4113 54.912C93.9959 51.5372 99.8031 50.5472 102.193 54.4368Z" fill="#263238"/>
<path d="M108.195 66.4926C108.177 66.4923 108.158 66.4882 108.142 66.4805C108.126 66.4729 108.111 66.462 108.1 66.4486C108.038 66.3694 106.634 64.4598 106.605 59.347C106.605 57.213 105.896 55.497 104.701 54.6302C104.391 54.3931 104.024 54.2266 103.632 54.1441C103.239 54.0615 102.831 54.0653 102.44 54.155C102.425 54.1582 102.409 54.1585 102.394 54.1561C102.378 54.1536 102.363 54.1483 102.35 54.1405C102.337 54.1328 102.325 54.1227 102.316 54.1108C102.307 54.099 102.301 54.0856 102.297 54.0714C102.294 54.0573 102.294 54.0426 102.296 54.0283C102.299 54.014 102.305 54.0004 102.313 53.9881C102.321 53.9758 102.332 53.9652 102.345 53.9569C102.358 53.9485 102.372 53.9426 102.388 53.9394C102.813 53.846 103.255 53.8438 103.681 53.933C104.106 54.0223 104.504 54.2006 104.844 54.4542C106.105 55.365 106.834 57.147 106.848 59.3426C106.876 64.3762 108.276 66.3034 108.276 66.321C108.285 66.3328 108.292 66.3462 108.295 66.3604C108.299 66.3745 108.299 66.3892 108.296 66.4035C108.294 66.4178 108.288 66.4315 108.28 66.4438C108.271 66.4561 108.26 66.4667 108.247 66.475C108.231 66.4842 108.214 66.4902 108.195 66.4926Z" fill="#263238"/>
<path d="M142.448 40.5901C143.776 42.2709 143.771 44.8889 143.319 46.3101C140.939 45.3113 141.31 42.4425 141.31 42.4425L142.448 40.5901Z" fill="#263238"/>
<path d="M149.564 61.3933L150.935 62.7881L152.363 64.2049C153.315 65.1421 154.267 66.0573 155.247 66.9373C155.723 67.3773 156.199 67.8173 156.709 68.2045C157.218 68.5917 157.661 69.0053 158.161 69.3617C158.66 69.7181 159.113 70.0349 159.555 70.3077C159.889 70.5143 160.239 70.6968 160.602 70.8533L159.874 70.7477C159.658 70.7236 159.44 70.7687 159.255 70.8753C159.255 70.8753 159.37 70.8753 159.531 70.7873C159.973 70.537 160.384 70.2419 160.755 69.9073C161.73 69.0512 162.641 68.1354 163.482 67.1661C164.391 66.1585 165.277 65.0849 166.157 63.9981C167.038 62.9113 167.919 61.7981 168.785 60.7025L168.828 60.6541C169.131 60.284 169.565 60.0241 170.055 59.9194C170.544 59.8148 171.058 59.8722 171.506 60.0815C171.955 60.2908 172.31 60.6389 172.509 61.0651C172.708 61.4913 172.74 61.9687 172.598 62.4141C172.116 63.8047 171.558 65.1719 170.927 66.5105C170.303 67.8305 169.613 69.1505 168.833 70.4705C168.023 71.8434 167.086 73.1491 166.034 74.3733C165.406 75.097 164.697 75.7577 163.92 76.3445C163.405 76.7295 162.841 77.0546 162.24 77.3125C161.357 77.6927 160.391 77.8765 159.417 77.8493C159.238 77.8431 159.059 77.821 158.884 77.7833L158.684 77.7437C157.641 77.5127 156.633 77.1655 155.681 76.7097C154.883 76.3341 154.112 75.9124 153.372 75.4469C152.015 74.6025 150.72 73.6749 149.497 72.6705C148.298 71.7069 147.184 70.6993 146.104 69.6741C145.57 69.1549 145.037 68.6357 144.528 68.0989C144.019 67.5621 143.528 67.0385 142.99 66.4269C142.39 65.621 142.134 64.6382 142.271 63.6679C142.408 62.6977 142.929 61.8088 143.733 61.1725C144.537 60.5363 145.568 60.1978 146.626 60.2223C147.684 60.2468 148.695 60.6326 149.464 61.3053L149.564 61.3933Z" fill="#E0E0E0"/>
<path d="M170.917 63.0785L175.159 63.2677L173.783 57.9877C173.783 57.9877 169.837 58.2561 169.204 60.1305C169.138 60.3395 169.151 60.5631 169.242 60.7641L170.023 62.4933C170.096 62.6592 170.22 62.8023 170.378 62.906C170.536 63.0096 170.724 63.0694 170.917 63.0785Z" fill="#FF8B7B"/>
<path d="M178.943 60.1348L178.124 58.3748C177.965 58.0336 177.68 57.7556 177.32 57.5897C176.96 57.4238 176.549 57.3809 176.158 57.4684L173.778 58.0096L175.154 63.2896L178.01 62.2248C178.222 62.1473 178.415 62.031 178.578 61.883C178.741 61.7349 178.869 61.558 178.956 61.363C179.043 61.1679 179.087 60.9586 179.085 60.7476C179.082 60.5366 179.034 60.3282 178.943 60.1348Z" fill="#FF8B7B"/>
<path d="M139.535 136.198C135.032 117.889 132.247 95.8145 132.247 95.8145L150.711 95.5417C150.711 95.5417 150.454 125.29 150.492 137.751C150.54 150.709 151.511 179.225 151.511 179.225H145.908C145.908 179.225 138.678 152.214 139.535 136.198Z" fill="#263238"/>
<path d="M138.097 110.937L135.175 114.941C136.046 119.94 137.079 125.444 138.283 130.839C138.787 122.549 138.702 112.917 138.097 110.937Z" fill="black"/>
<path d="M158.984 181.764C158.984 181.764 151.268 180.083 150.687 178.953H146.403L146.432 183.146H149.079L149.483 182.758L150.154 183.146C152.296 183.146 157.989 183.066 159.336 182.622C159.363 182.463 159.345 182.3 159.283 182.15C159.221 182 159.118 181.867 158.984 181.764Z" fill="#263238"/>
<path d="M122.36 135.683C124.498 117.269 124.431 104.967 127.035 95.8937L143.847 95.6605C143.847 95.6605 136.845 124.868 133.594 137.021C130.343 149.173 124.779 179.217 124.779 179.217H119.59C119.59 179.217 117.957 149.921 122.36 135.683Z" fill="#263238"/>
<path d="M125.702 99.4797C125.331 101.68 124.008 114.695 122.637 119.434C133.847 124.032 150.983 122.223 151.511 119.24C151.354 113.714 151.035 99.4797 151.035 99.4797H125.702Z" fill="#E0E0E0"/>
<path opacity="0.1" d="M126.326 101.895C127.109 103.068 128.054 104.14 129.139 105.085C129.139 105.085 126.721 104.685 126.326 101.895Z" fill="black"/>
<path opacity="0.1" d="M148.86 104.962C149.502 104.076 150.024 103.12 150.411 102.115C150.411 102.115 150.521 104.364 148.86 104.962Z" fill="black"/>
<path opacity="0.1" d="M126.431 103.554C126.689 104.436 127.072 105.282 127.568 106.071C127.115 105.816 126.761 105.436 126.557 104.984C126.352 104.531 126.308 104.031 126.431 103.554Z" fill="black"/>
<path d="M129.615 181.764C129.615 181.764 124.802 180.083 124.25 178.953H119.966L119.88 183.146H123.389L123.803 182.758L124.464 183.146C126.606 183.146 128.582 183.066 129.943 182.622C129.976 182.465 129.962 182.303 129.905 182.152C129.847 182.001 129.747 181.867 129.615 181.764Z" fill="#263238"/>
<path d="M126.416 59.158C132.357 58.476 140.839 58.542 146.527 59.4484C147.948 59.6866 149.253 60.3318 150.256 61.2928C151.258 62.2537 151.909 63.4818 152.115 64.8032C153.31 72.7452 152.282 86.6228 151.52 100.593C138.526 104.702 124.817 100.536 124.817 100.536C124.341 97.7196 125.407 88.484 126.121 83.556C125.05 78.4652 122.789 72.6352 121.275 65.8724C121.092 65.1159 121.082 64.3322 121.246 63.5719C121.411 62.8116 121.746 62.0917 122.231 61.4588C122.716 60.8259 123.338 60.2941 124.059 59.8978C124.78 59.5015 125.583 59.2494 126.416 59.158Z" fill="#0079BF"/>
<path opacity="0.1" d="M126.416 59.158C132.357 58.476 140.839 58.542 146.527 59.4484C147.948 59.6866 149.253 60.3318 150.256 61.2928C151.258 62.2537 151.909 63.4818 152.115 64.8032C153.31 72.7452 152.282 86.6228 151.52 100.593C138.526 104.702 124.817 100.536 124.817 100.536C124.341 97.7196 125.407 88.484 126.121 83.556C125.05 78.4652 122.789 72.6352 121.275 65.8724C121.092 65.1159 121.082 64.3322 121.246 63.5719C121.411 62.8116 121.746 62.0917 122.231 61.4588C122.716 60.8259 123.338 60.2941 124.059 59.8978C124.78 59.5015 125.583 59.2494 126.416 59.158Z" fill="#0079BF"/>
<path d="M132.295 48.6729L139.054 53.7988C138.178 55.9504 137.902 58.1988 141.72 59.048C142.672 60.214 141.244 62.26 139.549 63.0564C135.541 62.2116 133.233 61.2172 131.676 59.2416C132.166 57.6928 132.947 51.8541 132.295 48.6729Z" fill="#FF8B7B"/>
<path opacity="0.2" d="M135.113 50.8113L139.054 53.7945C138.841 54.2919 138.681 54.8078 138.578 55.3345C137.05 55.4357 134.927 54.0145 134.832 52.7209C134.797 52.0738 134.893 51.4263 135.113 50.8113Z" fill="black"/>
<path d="M131.324 45.1793C131.943 49.0997 132.085 51.4229 134.423 53.2621C137.94 56.0297 143.043 53.7769 143.709 49.7421C144.304 46.1209 143.195 40.3173 138.878 39.1029C137.92 38.8335 136.904 38.7936 135.925 38.9868C134.946 39.1801 134.036 39.6002 133.281 40.2077C132.526 40.8152 131.95 41.5901 131.607 42.4598C131.265 43.3294 131.167 44.2652 131.324 45.1793Z" fill="#FF8B7B"/>
<path d="M131.286 46.9876C131.721 47.4241 132.284 47.7349 132.907 47.8825C133.529 48.03 134.185 48.008 134.794 47.8192C133.775 46.8644 134.765 43.3708 133.747 41.9496C135.717 42.3104 143.39 43.34 144.123 40.8804C144.918 38.2404 141.743 36.1328 139.963 35.9348C140.487 37.0348 140.439 37.8312 138.488 37.4748C136.536 37.1184 128.492 35.4024 129.382 38.8872C126.792 38.8872 126.616 42.372 128.511 44.0396C129.548 44.9265 130.479 45.915 131.286 46.9876Z" fill="#263238"/>
<path d="M129.858 38.7202C128.306 38.3638 128.792 37.0437 129.139 36.9073C127.687 37.2329 127.159 38.553 128.911 39.1602C130.662 39.7674 129.858 38.7202 129.858 38.7202Z" fill="#263238"/>
<path d="M130.129 47.586C130.274 48.0156 130.509 48.4144 130.821 48.7595C131.133 49.1047 131.516 49.3892 131.947 49.5968C133.114 50.1468 133.961 49.2404 133.851 48.1052C133.761 47.08 133.052 45.562 131.776 45.4652C131.495 45.4522 131.216 45.5046 130.963 45.6173C130.71 45.7301 130.491 45.8997 130.327 46.1107C130.164 46.3217 130.06 46.5673 130.025 46.825C129.99 47.0827 130.026 47.3444 130.129 47.586Z" fill="#FF8B7B"/>
<path d="M137.279 45.32C137.307 45.6412 137.517 45.8876 137.755 45.87C137.993 45.8524 138.145 45.5708 138.116 45.254C138.088 44.9372 137.878 44.6864 137.64 44.704C137.402 44.7216 137.25 44.9988 137.279 45.32Z" fill="#263238"/>
<path d="M141.429 45.2276C141.458 45.5488 141.667 45.7952 141.905 45.7732C142.143 45.7512 142.291 45.4784 142.262 45.1572C142.234 44.836 142.024 44.594 141.786 44.6116C141.548 44.6292 141.401 44.9064 141.429 45.2276Z" fill="#263238"/>
<path d="M140.587 45.6589C141.087 46.6047 141.728 47.4814 142.491 48.2637C141.924 48.8445 140.858 48.7037 140.858 48.7037L140.587 45.6589Z" fill="#FF5652"/>
<path d="M136.636 44.2993C136.603 44.3077 136.569 44.3077 136.536 44.2993C136.511 44.2906 136.487 44.2772 136.468 44.2599C136.448 44.2426 136.432 44.2218 136.422 44.1988C136.411 44.1757 136.405 44.1509 136.406 44.1258C136.406 44.1007 136.411 44.0759 136.422 44.0529C136.536 43.7704 136.721 43.517 136.962 43.3135C137.203 43.11 137.492 42.9623 137.807 42.8825C137.861 42.8726 137.916 42.8828 137.962 42.9108C138.007 42.9389 138.039 42.9825 138.05 43.0321C138.06 43.0817 138.049 43.1332 138.019 43.1753C137.989 43.2174 137.942 43.2466 137.888 43.2565C137.639 43.3216 137.41 43.4406 137.221 43.6036C137.031 43.7665 136.886 43.9688 136.798 44.1937C136.783 44.2225 136.76 44.2473 136.732 44.2658C136.703 44.2843 136.67 44.2958 136.636 44.2993Z" fill="#263238"/>
<path d="M143.838 43.7889C143.804 43.7891 143.77 43.7811 143.74 43.7657C143.71 43.7502 143.685 43.7279 143.667 43.7009C143.54 43.4952 143.362 43.3205 143.148 43.1911C142.933 43.0618 142.688 42.9816 142.434 42.9573C142.407 42.9567 142.38 42.9513 142.356 42.9412C142.331 42.9312 142.309 42.9168 142.29 42.8988C142.272 42.8808 142.257 42.8596 142.248 42.8365C142.238 42.8133 142.233 42.7886 142.234 42.7637C142.236 42.7131 142.26 42.6655 142.3 42.6309C142.34 42.5964 142.393 42.5777 142.448 42.5789C142.771 42.6061 143.081 42.7041 143.355 42.8649C143.628 43.0256 143.856 43.2444 144.019 43.5029C144.046 43.5458 144.054 43.5967 144.042 43.645C144.029 43.6933 143.997 43.7354 143.952 43.7625C143.919 43.7835 143.878 43.7929 143.838 43.7889Z" fill="#263238"/>
<path d="M131.676 59.2417C131.676 59.2417 138.611 68.9833 141.248 75.8561C143.847 67.7909 144.147 61.3361 141.724 59.0481C140.944 59.9589 137.802 61.1909 131.676 59.2417Z" fill="#E0E0E0"/>
<path d="M129.31 66.4399L128.639 68.1999L127.973 70.0303C127.53 71.2491 127.125 72.4723 126.749 73.6735C126.559 74.2763 126.392 74.8747 126.24 75.4643C126.088 76.0539 125.94 76.6391 125.836 77.1979C125.731 77.7567 125.65 78.2979 125.598 78.7819C125.57 79.1526 125.57 79.5245 125.598 79.8951L125.35 79.2527C125.15 78.9051 124.945 78.8127 124.936 78.8127C124.926 78.8127 125.003 78.9007 125.15 78.9975C125.593 79.2391 126.064 79.4339 126.554 79.5783C127.82 79.9715 129.113 80.2861 130.424 80.5199C131.819 80.7751 133.256 80.9599 134.708 81.1799C136.16 81.3999 137.655 81.5539 139.092 81.7431H139.159C139.661 81.8095 140.121 82.0381 140.458 82.3882C140.795 82.7384 140.988 83.1876 141.001 83.6562C141.014 84.1248 140.847 84.5826 140.53 84.9484C140.213 85.3142 139.766 85.5644 139.268 85.6547C137.717 85.9269 136.152 86.1266 134.58 86.2531C133.009 86.3851 131.424 86.4511 129.82 86.4423C128.128 86.4395 126.44 86.3026 124.774 86.0331C123.796 85.8644 122.839 85.6034 121.918 85.2543C121.305 85.0206 120.726 84.716 120.195 84.3479C119.413 83.8138 118.777 83.1175 118.339 82.3151C118.258 82.1657 118.192 82.0096 118.143 81.8487L118.091 81.6683C117.813 80.7105 117.661 79.7251 117.639 78.7335C117.616 77.9067 117.649 77.0793 117.739 76.2563C117.891 74.7529 118.153 73.2609 118.524 71.7903C118.862 70.3559 119.291 68.9699 119.752 67.6015C119.99 66.9195 120.228 66.2419 120.495 65.5687C120.761 64.8955 121.028 64.2487 121.356 63.5227C121.786 62.5743 122.598 61.8175 123.62 61.4124C124.642 61.0073 125.795 60.9856 126.834 61.3519C127.874 61.7183 128.718 62.4439 129.189 63.3754C129.66 64.3068 129.721 65.3711 129.358 66.3431L129.31 66.4399Z" fill="#E0E0E0"/>
<path d="M139.768 82.3109L143.976 82.7949L141.653 87.7713C141.653 87.7713 137.812 86.8913 137.535 84.9377C137.508 84.7217 137.564 84.5037 137.693 84.3217L138.778 82.7421C138.882 82.5913 139.03 82.4709 139.206 82.3946C139.381 82.3183 139.576 82.2893 139.768 82.3109Z" fill="#FF8B7B"/>
<path d="M147.132 86.4777L145.999 88.0969C145.779 88.4081 145.447 88.6373 145.062 88.7436C144.677 88.8499 144.263 88.8266 143.895 88.6777L141.653 87.7713L143.976 82.7949L146.599 84.2953C146.791 84.4048 146.957 84.5486 147.088 84.7181C147.219 84.8877 147.312 85.0798 147.361 85.283C147.411 85.4862 147.416 85.6966 147.377 85.9017C147.337 86.1069 147.254 86.3027 147.132 86.4777Z" fill="#FF8B7B"/>
<path d="M132.014 57.7281C131.13 57.8579 130.319 58.2613 129.715 58.8722C131.6 61.1972 134.286 62.8581 137.331 63.5801C137.112 62.9069 137.769 60.9401 138.492 60.2361C135.832 59.8709 132.014 57.7281 132.014 57.7281Z" fill="#FAFAFA"/>
<path d="M139.325 57.97C140.228 58.1216 141.086 58.4469 141.843 58.9248C141.843 58.9248 144.509 61.6748 141.367 63.228C141.582 62.5548 139.939 60.7596 138.469 60.236C141.125 59.8708 139.325 57.97 139.325 57.97Z" fill="#FAFAFA"/>
<path d="M138.764 61.8025C136.66 60.7597 134.056 59.6289 134.78 61.4549C135.503 63.2809 134.546 63.9145 135.489 64.5349C136.431 65.1553 138.345 63.4525 138.978 63.2149C139.611 62.9773 138.764 61.8025 138.764 61.8025Z" fill="#767879"/>
<path d="M140.253 61.7892C141.858 60.7904 143.866 59.708 143.509 61.49C143.152 63.272 144.038 63.8924 143.338 64.4952C142.638 65.098 140.839 63.4128 140.268 63.1752C139.697 62.9376 140.253 61.7892 140.253 61.7892Z" fill="#767879"/>
<path d="M138.478 61.6617C138.954 61.3977 140.115 61.0633 140.691 61.7805C141.267 62.4977 141.082 63.6989 140.287 63.8441C140.003 63.8972 139.709 63.8781 139.435 63.789C139.162 63.6999 138.92 63.5441 138.735 63.3381C138.912 63.0751 138.983 62.7632 138.936 62.4568C138.889 62.1504 138.727 61.8689 138.478 61.6617Z" fill="#767879"/>
<path d="M125.069 179.357L119.295 179.507L118.991 176.484L125.697 176.854L125.069 179.357Z" fill="black"/>
<path d="M151.716 179.348L145.48 179.507L144.79 176.889L151.754 176.264L151.716 179.348Z" fill="black"/>
<path d="M138.126 81.2857C135.21 80.4889 132.203 80.009 129.167 79.8557C128.52 79.8909 128.273 93.4121 128.325 98.9429C128.325 99.6909 137.635 99.5413 140.015 99.2025C140.149 97.6581 140.177 86.3853 140.796 82.8609C140.843 82.5852 140.789 82.3028 140.643 82.0588C140.496 81.8147 140.265 81.6231 139.987 81.5145C139.397 81.2947 138.757 81.2161 138.126 81.2857Z" fill="white"/>
<path d="M186.864 59.6421H160.436V60.3373H186.864V59.6421Z" fill="#767879"/>
<path d="M186.311 60.3373H160.988L161.959 60.8257H185.345L186.311 60.3373Z" fill="#767879"/>
<path opacity="0.2" d="M186.311 60.3373H160.988L161.959 60.8257H185.345L186.311 60.3373Z" fill="black"/>
<path d="M174.74 49.8212C174.741 50.0207 174.677 50.2159 174.558 50.3822C174.439 50.5485 174.269 50.6783 174.07 50.7552C173.871 50.8322 173.652 50.8528 173.44 50.8144C173.228 50.776 173.033 50.6804 172.881 50.5396C172.728 50.3989 172.623 50.2194 172.581 50.0238C172.538 49.8282 172.56 49.6254 172.642 49.441C172.724 49.2567 172.864 49.099 173.044 48.9881C173.223 48.8772 173.434 48.818 173.65 48.818C173.793 48.8174 173.934 48.8429 174.066 48.8931C174.199 48.9433 174.319 49.0171 174.42 49.1103C174.521 49.2035 174.602 49.3143 174.657 49.4363C174.711 49.5583 174.74 49.6891 174.74 49.8212Z" fill="#767879"/>
<path d="M185.074 56.4168C184.34 54.3159 182.944 52.4652 181.066 51.1016L181.361 50.754C183.316 52.1728 184.768 54.0986 185.531 56.2848L185.074 56.4168Z" fill="#767879"/>
<path d="M179.414 50.0898C178.881 49.8175 178.325 49.5836 177.753 49.3902L177.915 48.9766C178.51 49.1836 179.088 49.4322 179.643 49.7202L179.414 50.0898Z" fill="#767879"/>
<path d="M173.65 49.8213C170.783 49.8213 168.033 50.8741 166.006 52.748C163.979 54.6219 162.84 57.1635 162.84 59.8137H184.459C184.459 57.1635 183.321 54.6219 181.293 52.748C179.266 50.8741 176.517 49.8213 173.65 49.8213Z" fill="#767879"/>
<path opacity="0.3" d="M164.33 58.9203H167.124C167.22 58.9188 167.313 58.8864 167.387 58.8287C167.461 58.7709 167.511 58.6914 167.528 58.6035C168.09 55.8667 169.856 53.4819 172.664 51.4095C172.728 51.3622 172.773 51.297 172.793 51.2238C172.813 51.1505 172.807 51.0732 172.775 51.0036C172.743 50.934 172.688 50.8759 172.617 50.8379C172.547 50.8 172.465 50.7845 172.383 50.7935C170.26 51.0527 168.285 51.9437 166.757 53.332C165.229 54.7204 164.232 56.5306 163.915 58.4891C163.908 58.5433 163.913 58.5983 163.931 58.6505C163.948 58.7027 163.977 58.7508 164.017 58.7917C164.056 58.8325 164.104 58.8651 164.158 58.8873C164.212 58.9095 164.27 58.9208 164.33 58.9203Z" fill="white"/>
<path d="M139.259 49.8478C139.481 49.8567 139.704 49.8464 139.925 49.817C139.955 49.8116 139.981 49.7957 139.998 49.7726C140.015 49.7495 140.021 49.7212 140.015 49.6938C140.008 49.6651 139.989 49.6399 139.963 49.623C139.936 49.606 139.904 49.5983 139.873 49.6014C139.375 49.6697 138.868 49.6331 138.388 49.4945C137.908 49.3558 137.469 49.1185 137.102 48.8005C137.092 48.79 137.079 48.7816 137.064 48.7759C137.05 48.7702 137.035 48.7672 137.019 48.7672C137.003 48.7672 136.988 48.7702 136.974 48.7759C136.959 48.7816 136.946 48.79 136.936 48.8005C136.915 48.8216 136.903 48.8491 136.903 48.8775C136.903 48.906 136.915 48.9335 136.936 48.9545C137.565 49.5054 138.392 49.8233 139.259 49.8478Z" fill="#263238"/>
</svg>
