<svg width="76" height="77" viewBox="0 0 76 77" fill="none" xmlns="http://www.w3.org/2000/svg">
<circle opacity="0.07" cx="38" cy="38.9199" r="38" fill="#4D592B"/>
<path d="M38.24 65.3999C52.7319 65.3999 64.48 53.6519 64.48 39.1599C64.48 24.668 52.7319 12.9199 38.24 12.9199C23.748 12.9199 12 24.668 12 39.1599C12 53.6519 23.748 65.3999 38.24 65.3999Z" fill="url(#paint0_linear_54_16058)"/>
<path d="M54.3247 33.9333C54.1438 33.3767 53.6627 32.971 53.0836 32.8869L43.7796 31.5349L39.6187 23.1041C39.3597 22.5793 38.8251 22.2471 38.24 22.2471C37.6548 22.2471 37.1203 22.5793 36.8612 23.1042L32.7004 31.535L23.3963 32.887C22.8172 32.9711 22.336 33.3768 22.1552 33.9334C21.9743 34.49 22.1252 35.101 22.5442 35.5094L29.2768 42.0719L27.6874 51.3383C27.5885 51.9151 27.8256 52.4981 28.299 52.8421C28.7726 53.1861 29.4002 53.2315 29.9182 52.9591L38.24 48.5841L46.5617 52.9591C47.0837 53.2334 47.711 53.1835 48.1809 52.8421C48.6544 52.4981 48.8916 51.9152 48.7926 51.3383L47.2033 42.0719L53.9357 35.5094C54.3547 35.1009 54.5055 34.4899 54.3247 33.9333Z" fill="url(#paint1_linear_54_16058)"/>
<defs>
<linearGradient id="paint0_linear_54_16058" x1="38.24" y1="65.3999" x2="38.24" y2="12.9199" gradientUnits="userSpaceOnUse">
<stop stop-color="#FD5900"/>
<stop offset="1" stop-color="#FFDE00"/>
</linearGradient>
<linearGradient id="paint1_linear_54_16058" x1="38.24" y1="53.1357" x2="38.24" y2="22.2471" gradientUnits="userSpaceOnUse">
<stop stop-color="#FFE59A"/>
<stop offset="1" stop-color="#FFFFD5"/>
</linearGradient>
</defs>
</svg>
