<svg width="16" height="17" viewBox="0 0 16 17" fill="none" xmlns="http://www.w3.org/2000/svg">
<path d="M6.34863 4.43115C6.59768 4.44072 6.83671 4.53801 7.02441 4.70752L7.86719 5.46924L7.94434 5.54443C8.28114 5.91365 8.31515 6.47838 8.02832 6.88818L7.96191 6.97412L7.58984 7.40479C8.07049 8.39816 8.79433 8.7673 9.18457 8.8999L9.4834 8.55029L9.55859 8.47021C9.95104 8.09419 10.5759 8.07071 11 8.42725L11.8887 9.17822L11.9678 9.25146C12.1423 9.43092 12.2471 9.66433 12.2676 9.9165L12.2705 10.0249C12.2661 10.2392 12.1986 10.4462 12.0752 10.6216L12.0088 10.7065L11.5117 11.2827C11.3738 11.4425 11.2055 11.5737 11.0186 11.6685L10.8252 11.7505C10.5016 11.8645 10.1748 11.9116 9.85645 11.9116C9.04419 11.9116 8.27884 11.6 7.69727 11.272C7.11515 10.9436 6.71247 10.5973 6.62695 10.521V10.52C4.63397 8.9541 4.53443 7.06867 4.58594 6.32666L4.60059 6.19482C4.64788 5.89017 4.78116 5.60059 4.98633 5.36963L5.49414 4.79541L5.57031 4.71826C5.75462 4.54797 5.9888 4.44742 6.24121 4.43311L6.34863 4.43115ZM6.26465 5.41943L6.22656 5.4458L5.71875 6.02002C5.62688 6.12227 5.571 6.25605 5.56055 6.396C5.51374 7.07758 5.64409 8.35464 6.96387 9.53076L7.24414 9.76416L7.24707 9.76709L7.26953 9.7876L7.5752 10.0308C7.76383 10.1702 8.0289 10.3499 8.34082 10.5122C8.92712 10.8173 9.6676 11.0575 10.3652 10.8735L10.5039 10.8306C10.6065 10.7936 10.7006 10.7308 10.7725 10.647V10.646L11.2686 10.0708L11.291 10.0288L11.2939 9.99854C11.2931 9.991 11.2917 9.98095 11.2871 9.97021L11.2588 9.93311L10.3691 9.18018C10.3262 9.14539 10.2635 9.15077 10.2285 9.19189H10.2275L9.92578 9.54736H9.9248C9.69882 9.81039 9.35493 9.93126 9.02051 9.87158L8.87793 9.83447C8.37157 9.66207 7.46304 9.21082 6.82715 8.06299L6.70312 7.82373C6.53625 7.47956 6.59507 7.06903 6.84473 6.77686L7.22266 6.33936C7.25749 6.29554 7.25222 6.23282 7.21387 6.19873V6.19775L6.37012 5.43701V5.43604C6.34597 5.41537 6.31857 5.41064 6.30273 5.41064H6.2998L6.26465 5.41943Z" fill="white" stroke="white" stroke-width="0.0948334"/>
<path d="M8.38147 0.952148C10.3137 0.952148 12.129 1.70413 13.4948 3.07031H13.4957C16.2269 5.80171 16.3121 10.1897 13.7516 13.0244L13.4957 13.2939C11.2287 15.5602 7.74819 16.0587 4.94788 14.5439L0.979126 16.2451L0.883423 16.2861L0.915649 16.1875L2.26135 12.0273C0.473052 9.18865 0.880714 5.45982 3.27014 3.07031L3.53186 2.82129C4.8352 1.64124 6.49759 0.984398 8.26331 0.956055L8.2594 0.952148H8.38147ZM8.38245 1.93164C6.81758 1.93164 5.33958 2.50266 4.18811 3.54688L3.96252 3.7627C1.84666 5.87852 1.52762 9.21011 3.20276 11.6826L3.32385 11.8604L3.33655 11.8799L3.32971 11.9023L2.4762 14.5381L4.98889 13.4609L5.01135 13.4512L5.03186 13.4639L5.2262 13.5791L5.45764 13.709C7.86847 14.9891 10.8566 14.5499 12.8043 12.6025L13.026 12.3691C15.1667 9.99717 15.1669 6.36476 13.024 3.99512L12.8024 3.7627C11.6216 2.582 10.0517 1.93172 8.38245 1.93164Z" fill="white" stroke="white" stroke-width="0.0948334"/>
</svg>
