<svg width="15" height="13" viewBox="0 0 15 13" fill="none" xmlns="http://www.w3.org/2000/svg">
<path d="M3.47156 1.15527C6.3155 0.811786 9.22397 0.836892 12.0565 1.22949L12.2303 1.25293L12.2216 1.25977C13.4025 1.49556 14.3421 2.44946 14.5311 3.63965L14.6356 4.39551C14.7257 5.15346 14.7723 5.91869 14.7723 6.67969C14.7723 7.44063 14.7258 8.20595 14.6356 8.96387L14.5311 9.71875C14.3412 10.9048 13.4541 11.8288 12.2909 12.0859L12.0546 12.1279C10.5437 12.3381 9.00298 12.4434 7.47839 12.4434C5.95382 12.4434 4.41288 12.3381 2.90222 12.1279H2.90125C1.7215 11.9633 0.751202 11.0848 0.471558 9.94922L0.425659 9.71875C0.26642 8.71587 0.184471 7.68967 0.184448 6.67969C0.184448 5.66978 0.263459 4.65314 0.422729 3.65625L0.469604 3.4209C0.74994 2.26268 1.7025 1.39604 2.9032 1.22949L3.47156 1.15527ZM7.4823 1.87598C6.1862 1.87598 4.87915 1.95428 3.58972 2.11035L3.03796 2.18164C2.23136 2.29361 1.5948 2.87476 1.4071 3.64844L1.37488 3.80566C1.22551 4.75195 1.1493 5.71382 1.14929 6.67773C1.14929 7.64088 1.22612 8.61376 1.37781 9.56543L1.40906 9.71875C1.59616 10.4752 2.24407 11.0633 3.03601 11.1738L3.58679 11.2451C6.34736 11.5787 9.17232 11.555 11.9237 11.1738L12.0819 11.1455C12.863 10.973 13.4554 10.3548 13.5819 9.56543L13.5936 9.49414V9.49316C13.7379 8.5645 13.8124 7.61751 13.8124 6.67773C13.8124 5.71478 13.7355 4.74251 13.5839 3.79102L13.5526 3.63672C13.3779 2.93066 12.8019 2.37113 12.0819 2.20996L11.9257 2.18164C10.4584 1.978 8.96342 1.87599 7.4823 1.87598Z" fill="white" stroke="white" stroke-width="0.170054"/>
<path d="M5.54993 3.85059C5.6869 3.79394 5.84314 3.80336 5.97375 3.87891L10.049 6.23145L10.0997 6.26074C10.2501 6.34585 10.3409 6.50711 10.3409 6.67773C10.3408 6.82737 10.2708 6.96711 10.1534 7.05762L10.1007 7.09375L5.97375 9.47656L5.97278 9.47559C5.89882 9.5185 5.81758 9.54094 5.73352 9.54102C5.64928 9.54102 5.5674 9.51861 5.49329 9.47559V9.47656C5.34294 9.39145 5.25208 9.23019 5.25208 9.05957V4.2959C5.25208 4.12474 5.34306 3.96527 5.49231 3.87891L5.54993 3.85059ZM6.21399 8.22754L8.89758 6.67773L6.21399 5.12793V8.22754Z" fill="white" stroke="white" stroke-width="0.170054"/>
</svg>
